<svg
   xmlns:dc="http://purl.org/dc/elements/1.1/"
   xmlns:cc="http://creativecommons.org/ns#"
   xmlns:rdf="http://www.w3.org/1999/02/22-rdf-syntax-ns#"
   xmlns:svg="http://www.w3.org/2000/svg"
   xmlns="http://www.w3.org/2000/svg"
   xmlns:sodipodi="http://sodipodi.sourceforge.net/DTD/sodipodi-0.dtd"
   xmlns:inkscape="http://www.inkscape.org/namespaces/inkscape"
   version="1.1"
   viewBox="0 0 4275 2979"
   sodipodi:docname="cragmaw-path.svg"
   inkscape:version="0.92.2 5c3e80d, 2017-08-06">
   <g>
     <clipPath id="clip-path-kennel">
      <desc>Kennel</desc>
      <path d="M0.49819883040935675 0.4221886539107083  l-0.00603509 0.00866062 -0.00121637 0.00520309 -0.00123977 0.00520309 -0.00807018 0.00825780 -0.00807018 0.00825780 -0.00107602 0.00281974 c-0.00060819 0.00154414 -0.00180117 0.00476670 -0.00266667 0.00711648 -0.00130994 0.00359181 -0.00168421 0.00439745 -0.00236257 0.00483384 l-0.00079532 0.00057066 0.00000000 0.04246391 c0.00000000 0.02336354 -0.00009357 0.04266532 -0.00018713 0.04290030 -0.00009357 0.00020141 -0.00046784 0.00053709 -0.00081871 0.00073850 -0.00060819 0.00033568 -0.00086550 0.00120846 -0.00039766 0.00144344 0.00014035 0.00006714 0.00035088 0.00214837 0.00046784 0.00463243 0.00014035 0.00248406 0.00032749 0.00463243 0.00042105 0.00473313 0.00009357 0.00013427 0.00526316 0.00372608 0.01150877 0.00802283 0.00624561 0.00429674 0.01143860 0.00788855 0.01153216 0.00802283 0.00011696 0.00020141 0.00243275 0.01873112 0.00250292 0.02007385 0.00000000 0.00006714 0.00233918 0.00234978 0.00521637 0.00510238 0.00498246 0.00480027 0.00535673 0.00523666 0.00912281 0.01070829 l0.00395322 0.00570661 0.00435088 0.00020141 c0.00240936 0.00013427 0.00598830 0.00033568 0.00797661 0.00046996 l0.00360234 0.00023498 0.00243275 0.00570661 c0.00130994 0.00312185 0.00254971 0.00584089 0.00269006 0.00607586 0.00016374 0.00020141 0.00465497 0.00288687 0.00996491 0.00597516 l0.00966082 0.00557234 0.00706433 0.00644512     c0.00521637 0.00473313 0.00802339 0.00755287 0.01076023 0.01074186 l0.00367251 0.00433031 0.01099415 -0.00033568 c0.00603509 -0.00020141 0.01129825 -0.00036925 0.01169591 -0.00036925 0.00065497 -0.00000000 0.00093567 -0.00050352 0.00446784 -0.00815710 0.00364912 -0.00785498 0.00390643 -0.00829137 0.00771930 -0.01383014 l0.00395322 -0.00570661 0.00116959 -0.01859684 c0.00063158 -0.01023834 0.00119298 -0.01866398 0.00123977 -0.01869755 0.00002339 -0.00006714 0.00612865 0.00154414 0.01356725 0.00359181 l0.01349708 0.00365895 0.00818713 -0.00409533 0.00818713 -0.00412890 0.00000000 -0.02108090 0.00000000 -0.02108090 -0.00371930 -0.00631084 -0.00374269 -0.00634441     -0.00533333 -0.00020141 c-0.00292398 -0.00013427 -0.00760234 -0.00033568 -0.01036257 -0.00046996 l-0.00500585 -0.00023498 -0.01036257 -0.01742195 c-0.00568421 -0.00960054 -0.01054971 -0.01772407 -0.01078363 -0.01809332     -0.00035088 -0.00046996 -0.00191813 -0.00097348 -0.00708772 -0.00228265 -0.00364912 -0.00090634 -0.00666667 -0.00164485 -0.00669006 -0.00164485 -0.00004678 -0.00000000 -0.00175439 -0.00362538 -0.00378947 -0.00802283 l-0.00374269 -0.00802283 -0.00070175 -0.00966767 c-0.00046784 -0.00617657 -0.00081871 -0.00980195 -0.00100585 -0.01007049 -0.00016374 -0.00020141 -0.00374269 -0.00359181 -0.00795322 -0.00748573 l-0.00764912 -0.00708291 -0.00907602 0.00100705 c-0.00715789 0.00077207 -0.00912281 0.00090634 -0.00933333 0.00057066 -0.00014035 -0.00020141 -0.00355556 -0.00765358 -0.00757895 -0.01651561 -0.00699415 -0.01537429 -0.00743860 -0.01644847     -0.01005848 -0.02433703 l-0.00273684 -0.00822424 -0.01295906 -0.00010070 -0.01295906 -0.00006714 -0.00601170 0.00862706z"/>
     </clipPath>
     <clipPath id="clip-path-cave-mouth">
      <desc>Cave Mouth</desc>
      <path d="M0.396 0.5742531050688151  c-0.00028070 0.00090634 -0.00095906 0.00328969 -0.00154386 0.00537093 -0.00063158 0.00228265 -0.00191813 0.00580732 -0.00332164 0.00906344     l-0.00229240 0.00530379 -0.00138012 0.00020141 c-0.00074854 0.00013427 -0.00519298 0.00050352 -0.00984795 0.00083921 l-0.00846784 0.00060423 -0.00486550 -0.00157771 -0.00486550 -0.00154414 -0.00982456 -0.00087278 c-0.00540351 -0.00046996 -0.01031579 -0.00083921 -0.01092398 -0.00083921 -0.00081871 -0.00000000 -0.00233918 0.00070493 -0.00608187 0.00285331 l-0.00498246 0.00285331 -0.00294737 0.00436388     -0.00292398 0.00436388 -0.00790643 -0.00100705 -0.00790643 -0.00104062 -0.00177778 -0.00177912 c-0.00142690 -0.00140987 -0.00273684 -0.00231621 -0.00631579 -0.00419604 -0.00247953 -0.00130916 -0.00477193 -0.00238335     -0.00509942 -0.00238335 -0.00032749 -0.00000000 -0.00446784 0.00077207 -0.00916959 0.00171198 l-0.00858480 0.00167842 -0.00842105 0.00389392 c-0.00463158 0.00211480 -0.00858480 0.00399463     -0.00877193 0.00412890 -0.00018713 0.00016784 -0.00238596 0.00557234 -0.00486550 0.01201746 l-0.00451462 0.01174891 -0.00315789 0.00396106 -0.00313450 0.00399463 -0.00299415 0.00151057     -0.00297076 0.00151057 -0.00374269 0.00664653 -0.00371930 0.00661296 -0.00439766 -0.00000000 -0.00439766 -0.00000000 -0.00287719 -0.00204767 -0.00285380 -0.00208124 -0.00385965 0.00107419 c-0.00212865 0.00057066 -0.00474854 0.00124203 -0.00584795 0.00147701 l-0.00198830 0.00040282 -0.00007018 0.14853978 c-0.00002339 0.08170527 0.00000000 0.14904330 0.00007018 0.14961396 l0.00014035 0.00110775     0.09632749 -0.00000000 c0.05298246 -0.00000000 0.09665497 -0.00010070 0.09705263 -0.00020141 0.00102924 -0.00030211 0.00332164 -0.00332326 0.00332164 -0.00436388 0.00000000 -0.00046996 0.00025731 -0.00117489 0.00053801 -0.00157771 0.00030409 -0.00040282 0.00079532 -0.00164485 0.00107602 -0.00275260 0.00028070 -0.00110775 0.00060819 -0.00214837 0.00070175 -0.00234978 0.00011696 -0.00016784 0.00025731 -0.00100705 0.00035088 -0.00184626 0.00016374 -0.00151057 0.00070175 -0.00399463 0.00109942 -0.00510238 0.00011696 -0.00030211 0.00028070 -0.00117489 0.00035088 -0.00194696 0.00009357 -0.00073850 0.00025731 -0.00144344 0.00035088 -0.00154414 0.00011696 -0.00010070 0.00021053 -0.00067137 0.00021053 -0.00130916 0.00000000 -0.00063780 0.00011696 -0.00154414 0.00028070 -0.00208124 0.00016374 -0.00050352 0.00039766 -0.00261833 0.00056140 -0.00463243 0.00032749 -0.00439745     0.00072515 -0.00701578 0.00102924 -0.00715005 0.00014035 -0.00006714 0.00023392 -0.00087278 0.00023392 -0.00177912 0.00000000 -0.00093991 0.00037427 -0.00386036 0.00081871 -0.00647868 0.00044444 -0.00265190 0.00081871 -0.00533736 0.00081871 -0.00594159 0.00000000 -0.00063780 0.00011696 -0.00174555 0.00025731 -0.00248406 0.00046784 -0.00261833 0.00067836 -0.00406177 0.00081871 -0.00537093 0.00007018 -0.00073850 0.00025731 -0.00218194 0.00044444 -0.00318899 0.00044444 -0.00258476 0.00079532 -0.00540450 0.00107602 -0.00855992 0.00011696 -0.00147701 0.00030409 -0.00298758 0.00042105 -0.00335683 0.00056140 -0.00187983 0.00114620 -0.01131252 0.00116959 -0.01933535 0.00002339 -0.00342397 0.00011696 -0.00668009 0.00025731 -0.00721719 0.00011696 -0.00053709 0.00032749 -0.00271903 0.00044444 -0.00483384 0.00011696 -0.00211480 0.00042105 -0.00574018 0.00067836 -0.00805639 0.00028070 -0.00231621 0.00060819 -0.00533736 0.00074854 -0.00671366 0.00014035 -0.00137630 0.00046784 -0.00379322 0.00074854 -0.00537093 0.00025731 -0.00157771 0.00056140 -0.00382679 0.00067836 -0.00503525 0.00009357 -0.00120846     0.00035088 -0.00389392 0.00053801 -0.00597516 0.00018713 -0.00208124 0.00042105 -0.00389392 0.00049123 -0.00406177 0.00007018 -0.00016784 0.00025731 -0.00224908 0.00044444 -0.00463243 0.00018713 -0.00234978 0.00053801 -0.00543807 0.00079532 -0.00681437 0.00025731 -0.00137630     0.00058480 -0.00379322 0.00074854 -0.00537093 0.00016374 -0.00157771 0.00044444 -0.00315542 0.00060819 -0.00352467 0.00014035 -0.00036925 0.00035088 -0.00151057 0.00044444 -0.00251762 0.00009357 -0.00100705 0.00028070 -0.00214837 0.00042105 -0.00251762 0.00014035 -0.00036925 0.00032749 -0.00127560 0.00042105 -0.00201410 0.00051462 -0.00389392 0.00074854 -0.00506882 0.00105263 -0.00557234 0.00018713 -0.00026855 0.00032749 -0.00073850 0.00032749 -0.00104062 0.00000000 -0.00026855 0.00007018 -0.00057066 0.00014035 -0.00070493 0.00009357 -0.00010070 0.00039766 -0.00130916 0.00072515 -0.00265190     0.00030409 -0.00134273 0.00065497 -0.00258476 0.00077193 -0.00271903 0.00009357 -0.00016784 0.00014035 -0.00151057 0.00007018 -0.00298758 -0.00009357 -0.00171198 0.00000000 -0.00375965 0.00023392 -0.00574018 0.00021053 -0.00171198 0.00049123 -0.00459886 0.00063158 -0.00644512 0.00070175 -0.00886203 0.00093567 -0.01090970 0.00147368 -0.01309164 0.00032749 -0.00130916 0.00074854 -0.00355824 0.00095906 -0.00503525 0.00053801 -0.00382679 0.00060819 -0.00429674 0.00084211 -0.00503525 0.00011696 -0.00036925 0.00030409 -0.00134273 0.00042105 -0.00218194     0.00030409 -0.00198053 0.00065497 -0.00339040 0.00147368 -0.00597516 0.00037427 -0.00114132 0.00067836 -0.00231621 0.00067836 -0.00261833 0.00000000 -0.00083921 0.00109942 -0.00362538 0.00161404 -0.00409533 0.00028070 -0.00023498 0.00049123 -0.00067137 0.00049123 -0.00097348 0.00000000 -0.00030211 0.00030409 -0.00104062 0.00065497 -0.00161128 0.00037427 -0.00053709 0.00116959 -0.00221551 0.00180117 -0.00369251 0.00063158 -0.00147701 0.00154386 -0.00332326 0.00203509 -0.00409533 0.00049123 -0.00080564 0.00088889 -0.00157771 0.00088889 -0.00177912 0.00000000 -0.00020141     0.00056140 -0.00120846 0.00123977 -0.00228265 0.00067836 -0.00104062 0.00145029 -0.00238335 0.00173099 -0.00295401 0.00028070 -0.00053709 0.00114620 -0.00167842 0.00189474 -0.00248406 0.00140351 -0.00144344 0.00402339 -0.00604230 0.00435088 -0.00765358 0.00009357 -0.00040282     0.00028070 -0.00073850 0.00039766 -0.00073850 0.00011696 -0.00000000 0.00058480 -0.00083921 0.00102924 -0.00184626 0.00046784 -0.00100705 0.00163743 -0.00339040 0.00264327 -0.00527022 0.00509942 -0.00976838 0.00528655 -0.01017120 0.00638596 -0.01554213     0.00276023 -0.01356160 0.00336842 -0.01641490 0.00421053 -0.01960389 0.00049123 -0.00191339 0.00091228 -0.00386036 0.00091228 -0.00436388 0.00000000 -0.00046996 0.00035088 -0.00386036 0.00079532 -0.00751930 l0.00079532 -0.00664653 -0.00411696 -0.01248741 c-0.00336842 -0.01017120 -0.00446784 -0.01386371 -0.00589474 -0.01987244 l-0.00175439 -0.00738503 -0.00252632 -0.00268546 c-0.00180117 -0.00191339 -0.00301754 -0.00295401 -0.00432749 -0.00362538     -0.00311111 -0.00164485 -0.00332164 -0.00177912 -0.00371930 -0.00261833 -0.00021053 -0.00043639 -0.00063158 -0.00110775 -0.00091228 -0.00147701 -0.00114620 -0.00154414 -0.00145029 -0.00194696 -0.00278363 -0.00416247 l-0.00140351 -0.00231621     -0.02007018 -0.00003357 -0.02007018 -0.00003357 -0.00046784 0.00157771z"/>
     </clipPath>
     <clipPath id="clip-path-compass">
      <desc>Compass</desc>
      <path d="M0.8996257309941521 0.08143672373279624  c-0.00035088 0.00063780 -0.00009357 0.00104062 0.00079532 0.00127560 0.00044444 0.00010070 0.00105263 0.00060423 0.00135673 0.00107419 l0.00056140 0.00087278 -0.00007018 0.00859349 c-0.00002339 0.00476670 -0.00014035 0.00906344 -0.00023392 0.00963411 -0.00016374 0.00080564 -0.00035088 0.00104062 -0.00100585 0.00117489 -0.00058480 0.00013427 -0.00079532 0.00033568 -0.00079532 0.00080564 0.00000000 0.00060423 0.00018713 0.00067137 0.00280702 0.00067137 0.00261988 -0.00000000 0.00280702 -0.00006714 0.00280702 -0.00067137 0.00000000 -0.00046996 -0.00021053 -0.00067137 -0.00081871 -0.00080564 -0.00058480 -0.00013427 -0.00088889 -0.00040282     -0.00112281 -0.00107419 -0.00042105 -0.00127560 -0.00072515 -0.01722054 -0.00032749 -0.01701913 0.00016374 0.00006714 0.00109942 0.00167842 0.00208187 0.00352467 0.00142690 0.00265190 0.00645614 0.01127895 0.00804678 0.01379658     0.00233918 0.00369251 0.00240936 0.00365895 0.00247953 -0.00077207 0.00009357 -0.00617657 0.00058480 -0.01842900 0.00079532 -0.01920107 0.00014035 -0.00050352 0.00039766 -0.00073850 0.00079532 -0.00073850 0.00049123 -0.00000000 0.00060819 -0.00013427 0.00053801 -0.00070493 -0.00007018 -0.00067137 -0.00021053 -0.00070493 -0.00276023 -0.00070493 -0.00254971 -0.00000000 -0.00269006 0.00003357 -0.00276023 0.00070493 -0.00007018 0.00053709 0.00004678 0.00070493 0.00046784 0.00070493 0.00088889 -0.00000000 0.00154386 0.00036925 0.00170760 0.00093991 0.00030409 0.00117489 0.00051462 0.01470292 0.00023392 0.01510574 -0.00009357 0.00013427 -0.00035088 -0.00013427 -0.00056140 -0.00060423 -0.00039766 -0.00090634 -0.00493567 -0.00913058 -0.00514620 -0.00939913 -0.00009357 -0.00010070 -0.00107602 -0.00177912 -0.00219883 -0.00375965 l-0.00203509 -0.00359181 -0.00147368 0.00016784 c-0.00079532 0.00013427 -0.00201170 0.00006714 -0.00266667 -0.00013427 -0.00095906 -0.00023498 -0.00128655 -0.00020141     -0.00149708 0.00013427z m0.01569591 0.02145015 c0.00000000 0.00026855 -0.00009357 0.00050352 -0.00021053 0.00050352 -0.00030409 -0.00000000 -0.00051462 -0.00053709 -0.00032749 -0.00080564 0.00025731 -0.00036925 0.00053801 -0.00020141 0.00053801 0.00030211z"/>
      <path d="M0.9087719298245615 0.109231285666331  c0.00000000 0.00198053 -0.00056140 0.00701578 -0.00093567 0.00842565 l-0.00023392 0.00090634 -0.00072515 -0.00087278 c-0.00081871 -0.00100705 -0.00152047 -0.00110775 -0.00226901 -0.00033568 -0.00079532 0.00080564 -0.00105263 0.00167842 -0.00072515 0.00255119 0.00053801 0.00144344 0.00149708 0.00171198 0.00219883 0.00060423 0.00039766 -0.00063780 0.00039766 -0.00070493 0.00002339 -0.00130916 -0.00049123 -0.00077207 -0.00116959 -0.00053709 -0.00100585 0.00033568 0.00014035 0.00077207 -0.00042105 0.00087278 -0.00063158 0.00010070 -0.00035088 -0.00127560 0.00084211 -0.00251762 0.00170760 -0.00177912 0.00065497 0.00060423 0.00091228 0.00164485 0.00067836 0.00288687 -0.00025731 0.00140987 -0.00109942 0.00231621 -0.00297076 0.00312185 -0.00357895 0.00161128 -0.00690058 0.00476670 -0.00902924 0.00866062 -0.00135673 0.00241692 -0.00280702 0.00651225     -0.00318129 0.00896274 -0.00030409 0.00201410 -0.00095906 0.00308828 -0.00247953 0.00412890 -0.00105263 0.00070493 -0.00201170 0.00013427 -0.00189474 -0.00117489 0.00004678 -0.00046996 0.00021053 -0.00093991 0.00037427 -0.00104062 0.00021053 -0.00010070 0.00025731 0.00010070 0.00014035 0.00073850 -0.00011696 0.00073850 -0.00007018 0.00087278 0.00032749 0.00087278 0.00091228 -0.00000000 0.00091228 -0.00211480 0.00000000 -0.00255119 -0.00105263 -0.00046996 -0.00180117 0.00198053 -0.00095906 0.00328969 0.00021053 0.00033568 0.00032749 0.00070493 0.00023392 0.00080564 -0.00021053 0.00030211 -0.00175439 0.00073850 -0.00357895 0.00097348 -0.00095906 0.00013427 -0.00168421 0.00036925 -0.00161404 0.00050352 0.00007018 0.00013427 0.00114620 0.00036925     0.00240936 0.00050352 0.00278363 0.00026855 0.00306433 0.00046996 0.00252632 0.00154414 -0.00049123 0.00104062 -0.00046784 0.00208124 0.00007018 0.00278617 0.00081871 0.00107419 0.00208187 -0.00010070 0.00152047 -0.00140987 -0.00042105 -0.00090634 -0.00091228 -0.00070493 -0.00086550 0.00033568 0.00004678 0.00107419 -0.00028070 0.00124203 -0.00060819 0.00033568 -0.00016374 -0.00046996 -0.00014035 -0.00083921 0.00011696 -0.00134273 0.00051462 -0.00107419 0.00152047 -0.00093991 0.00271345 0.00036925 0.00086550 0.00097348 0.00105263 0.00137630 0.00142690 0.00342397 0.00084211 0.00476670 0.00266667 0.00916415 0.00505263 0.01235314 0.00245614 0.00322256 0.00458480 0.00493454 0.00774269 0.00614300 0.00084211 0.00033568 0.00175439 0.00087278 0.00203509 0.00124203 0.00072515 0.00093991 0.00145029 0.00315542 0.00130994 0.00396106 -0.00018713 0.00097348 -0.00112281 0.00154414 -0.00159064 0.00097348 -0.00053801 -0.00063780 -0.00042105 -0.00104062 0.00030409 -0.00093991 0.00072515 0.00010070 0.00086550 -0.00060423 0.00023392 -0.00120846 -0.00051462 -0.00043639 -0.00119298 0.00006714 -0.00130994 0.00093991 -0.00021053 0.00144344 0.00140351 0.00245049 0.00215205 0.00137630 0.00018713 -0.00026855 0.00044444 -0.00050352 0.00056140 -0.00050352 0.00025731 -0.00000000 0.00074854 0.00349110 0.00077193 0.00540450 0.00000000 0.00063780 0.00009357 0.00144344 0.00018713 0.00181269 0.00016374 0.00053709 0.00023392 0.00030211 0.00035088 -0.00100705 0.00035088 -0.00382679 0.00058480 -0.00597516 0.00070175 -0.00614300 0.00007018 -0.00010070 0.00032749 0.00006714 0.00056140 0.00036925 0.00051462 0.00067137 0.00147368 0.00073850 0.00187135 0.00016784 0.00016374 -0.00023498 0.00028070 -0.00080564 0.00028070 -0.00130916 0.00000000 -0.00114132 -0.00079532 -0.00164485 -0.00133333 -0.00087278 -0.00044444 0.00063780 -0.00016374 0.00134273 0.00042105 0.00107419 0.00051462 -0.00023498 0.00058480 0.00023498 0.00011696 0.00080564 -0.00067836 0.00083921 -0.00170760 -0.00067137     -0.00140351 -0.00208124 0.00009357 -0.00040282 0.00046784 -0.00137630 0.00086550 -0.00214837 0.00058480 -0.00120846 0.00091228 -0.00151057 0.00233918 -0.00211480 0.00348538 -0.00151057 0.00673684 -0.00466600 0.00895906 -0.00866062 0.00121637 -0.00218194 0.00278363 -0.00668009 0.00313450 -0.00906344 0.00014035 -0.00087278 0.00028070 -0.00191339 0.00035088 -0.00228265 0.00014035 -0.00090634 0.00217544 -0.00281974 0.00297076 -0.00281974 0.00032749 -0.00000000 0.00072515 0.00023498 0.00088889 0.00046996 0.00035088 0.00063780 0.00021053 0.00194696 -0.00021053 0.00214837 -0.00023392 0.00010070 -0.00028070 -0.00006714 -0.00016374 -0.00070493 0.00018713 -0.00107419 -0.00023392 -0.00151057 -0.00074854 -0.00080564 -0.00053801 0.00077207 -0.00002339 0.00234978 0.00070175 0.00218194 0.00074854 -0.00013427     0.00133333 -0.00174555 0.00093567 -0.00251762 -0.00086550 -0.00177912 -0.00067836 -0.00198053 0.00217544 -0.00228265 0.00116959 -0.00010070 0.00226901 -0.00033568 0.00240936 -0.00046996 0.00016374 -0.00013427 -0.00084211 -0.00043639 -0.00222222 -0.00067137 -0.00140351 -0.00023498     -0.00261988 -0.00053709 -0.00273684 -0.00070493 -0.00014035 -0.00020141 -0.00007018 -0.00057066 0.00016374 -0.00093991 0.00051462 -0.00080564 0.00051462 -0.00181269 -0.00002339 -0.00275260 -0.00030409 -0.00057066 -0.00056140 -0.00070493 -0.00093567 -0.00053709 -0.00058480 0.00026855 -0.00093567 0.00174555 -0.00056140 0.00228265 0.00039766 0.00057066 0.00102924 0.00003357 0.00086550 -0.00073850 -0.00007018 -0.00036925 -0.00004678 -0.00067137 0.00009357 -0.00067137 0.00077193 -0.00000000 0.00051462 0.00224908 -0.00030409 0.00255119     -0.00112281 0.00040282 -0.00336842 -0.00204767 -0.00355556 -0.00389392 -0.00016374 -0.00147701 -0.00123977 -0.00513595 -0.00208187 -0.00708291 -0.00215205 -0.00490097 -0.00556725 -0.00876133 -0.00956725 -0.01074186     -0.00177778 -0.00087278 -0.00283041 -0.00208124 -0.00308772 -0.00345754 -0.00021053 -0.00117489 0.00021053 -0.00245049 0.00095906 -0.00295401 0.00049123 -0.00030211 0.00065497 -0.00026855 0.00105263 0.00023498 0.00051462 0.00067137 0.00053801 0.00187983 0.00007018 0.00211480 -0.00018713 0.00006714 -0.00030409 -0.00016784 -0.00030409 -0.00060423 0.00000000 -0.00053709 -0.00011696 -0.00070493 -0.00051462 -0.00060423 -0.00112281 0.00023498 -0.00065497 0.00228265 0.00051462 0.00228265 0.00138012 -0.00000000 0.00189474 -0.00241692     0.00077193 -0.00369251 -0.00079532 -0.00087278 -0.00196491 -0.00073850 -0.00276023 0.00033568 -0.00030409 0.00040282 -0.00060819 0.00057066 -0.00067836 0.00040282 -0.00014035 -0.00036925 -0.00072515 -0.00560591 -0.00095906 -0.00872776     -0.00018713 -0.00255119 -0.00058480 -0.00275260 -0.00058480 -0.00026855z m-0.00278363 0.01836187 c0.00109942 0.00060423 0.00173099 0.00221551 0.00173099 0.00456529 0.00000000 0.00184626 -0.00007018 0.00218194 -0.00070175 0.00312185     -0.00037427 0.00060423 -0.00121637 0.00144344 -0.00187135 0.00191339 -0.00063158 0.00046996 -0.00135673 0.00107419 -0.00159064 0.00137630 -0.00037427 0.00046996 -0.00049123 0.00043639 -0.00133333 -0.00077207 -0.00051462 -0.00073850 -0.00093567 -0.00157771 -0.00093567 -0.00187983 0.00000000 -0.00057066 -0.00152047 -0.00157771 -0.00177778 -0.00120846 -0.00028070 0.00040282 0.00058480 0.00251762 0.00112281 0.00268546 0.00030409 0.00013427 0.00086550 0.00067137 0.00123977 0.00124203 0.00067836 0.00100705 0.00067836 0.00104062 0.00028070 0.00194696 -0.00023392 0.00050352 -0.00077193 0.00191339 -0.00121637 0.00315542 -0.00044444 0.00124203 -0.00102924 0.00241692 -0.00126316 0.00261833     -0.00081871 0.00060423 -0.00201170 0.00040282 -0.00259649 -0.00050352 l-0.00053801 -0.00080564 -0.00067836 0.00080564 c-0.00046784 0.00057066 -0.00098246 0.00083921 -0.00154386 0.00083921 -0.00147368 -0.00000000 -0.00154386 -0.00023498 -0.00112281 -0.00315542 0.00037427 -0.00265190 0.00180117 -0.00758644 0.00219883 -0.00758644 0.00011696 -0.00000000 0.00028070 0.00097348 0.00035088 0.00218194 0.00016374 0.00234978 0.00084211 0.00463243 0.00154386 0.00520309 0.00084211 0.00063780     0.00182456 0.00040282 0.00233918 -0.00053709 0.00063158 -0.00114132 0.00060819 -0.00181269 0.00000000 -0.00295401 -0.00037427 -0.00070493 -0.00065497 -0.00087278 -0.00123977 -0.00080564 -0.00067836 0.00010070 -0.00072515 0.00016784 -0.00072515 0.00144344 0.00000000 0.00110775 0.00007018 0.00134273 0.00046784 0.00134273 0.00032749 -0.00000000 0.00046784 -0.00023498 0.00046784 -0.00073850 0.00000000 -0.00104062 0.00028070 -0.00127560 0.00058480 -0.00046996 0.00030409 0.00087278 -0.00002339 0.00191339 -0.00072515 0.00221551 -0.00037427 0.00016784 -0.00067836 -0.00000000 -0.00112281 -0.00063780 -0.00056140 -0.00083921 -0.00060819 -0.00110775 -0.00060819 -0.00386036 0.00000000 -0.00281974 0.00004678 -0.00305472 0.00072515 -0.00426318 0.00126316 -0.00224908 0.00180117 -0.00265190 0.00378947 -0.00275260     0.00210526 -0.00013427 0.00339181 0.00057066 0.00350877 0.00187983 0.00016374 0.00154414 -0.00114620 0.00238335 -0.00184795 0.00120846 -0.00028070 -0.00046996 -0.00023392 -0.00053709 0.00037427 -0.00040282 0.00058480 0.00006714 0.00072515 -0.00003357     0.00077193 -0.00063780 0.00007018 -0.00057066 -0.00007018 -0.00080564 -0.00056140 -0.00097348 -0.00130994 -0.00046996 -0.00196491 0.00130916 -0.00100585 0.00275260 0.00072515 0.00114132 0.00189474 0.00110775 0.00252632 -0.00006714 0.00060819 -0.00114132 0.00060819 -0.00181269 0.00000000 -0.00295401 -0.00072515 -0.00130916 -0.00177778 -0.00198053 -0.00346199 -0.00218194 -0.00084211 -0.00010070 -0.00154386 -0.00036925 -0.00159064 -0.00057066 -0.00011696 -0.00046996 0.00184795 -0.00174555 0.00320468 -0.00211480 0.00109942 -0.00030211     0.00180117 -0.00020141 0.00283041 0.00033568z m0.01071345 0.00083921 c0.00065497 0.00050352 0.00119298 0.00104062 0.00119298 0.00117489 0.00000000 0.00016784 -0.00039766 0.00030211 -0.00088889 0.00030211 -0.00222222 -0.00000000 -0.00472515 0.00198053 -0.00472515 0.00375965 0.00000000 0.00228265 0.00203509 0.00322256 0.00301754 0.00137630 0.00044444 -0.00077207 0.00046784 -0.00097348 0.00018713 -0.00157771 -0.00039766 -0.00087278 -0.00138012 -0.00107419 -0.00177778 -0.00040282     -0.00044444 0.00077207 -0.00009357 0.00127560 0.00074854 0.00104062 l0.00074854 -0.00023498 -0.00060819 0.00090634 c-0.00056140 0.00080564 -0.00067836 0.00083921 -0.00112281 0.00043639 -0.00114620 -0.00100705 -0.00067836 -0.00298758     0.00084211 -0.00359181 0.00205848 -0.00083921 0.00411696 -0.00030211 0.00538012 0.00140987 0.00112281 0.00151057 0.00147368 0.00285331 0.00147368 0.00557234 0.00000000 0.00214837 -0.00007018 0.00248406 -0.00067836 0.00345754 -0.00060819 0.00097348 -0.00072515 0.00104062 -0.00128655 0.00067137 -0.00046784 -0.00030211 -0.00060819 -0.00063780 -0.00060819 -0.00140987 0.00000000 -0.00060423 0.00014035 -0.00110775 0.00035088 -0.00124203 0.00051462 -0.00026855 0.00070175 0.00010070 0.00037427 0.00067137     -0.00021053 0.00036925 -0.00018713 0.00057066 0.00007018 0.00090634 0.00051462 0.00057066 0.00084211 0.00013427 0.00084211 -0.00117489 0.00000000 -0.00097348 -0.00009357 -0.00120846 -0.00063158 -0.00137630 -0.00049123 -0.00020141 -0.00072515 -0.00006714 -0.00116959 0.00067137 -0.00126316 0.00211480 0.00000000 0.00463243 0.00182456 0.00355824 0.00086550 -0.00053709 0.00161404 -0.00278617 0.00170760 -0.00506882 0.00002339 -0.00097348 0.00016374 -0.00181269 0.00030409 -0.00187983 0.00035088 -0.00016784 0.00184795 0.00500168     0.00219883 0.00755287 0.00032749 0.00248406 0.00021053 0.00275260 -0.00123977 0.00275260 -0.00056140 -0.00000000 -0.00107602 -0.00026855 -0.00154386 -0.00083921 l-0.00067836 -0.00080564 -0.00053801 0.00080564 c-0.00114620 0.00174555     -0.00247953 0.00087278 -0.00322807 -0.00211480 -0.00028070 -0.00107419 -0.00072515 -0.00224908 -0.00098246 -0.00258476 -0.00025731 -0.00033568 -0.00046784 -0.00077207 -0.00046784 -0.00097348 0.00000000 -0.00057066 0.00147368 -0.00255119 0.00189474 -0.00255119     0.00021053 -0.00000000 0.00049123 -0.00020141 0.00063158 -0.00043639 0.00025731 -0.00043639 0.00063158 -0.00258476 0.00044444 -0.00258476 -0.00044444 -0.00000000 -0.00180117 0.00110775 -0.00180117 0.00147701 0.00000000 0.00026855 -0.00039766 0.00107419 -0.00086550 0.00181269     l-0.00088889 0.00134273 -0.00058480 -0.00067137 c-0.00032749 -0.00036925 -0.00116959 -0.00110775 -0.00191813 -0.00164485 -0.00175439 -0.00127560 -0.00229240 -0.00238335 -0.00229240 -0.00480027 0.00000000 -0.00167842 0.00009357 -0.00201410 0.00084211 -0.00318899     0.00044444 -0.00073850 0.00105263 -0.00140987 0.00133333 -0.00151057 0.00105263 -0.00030211 0.00294737 0.00016784 0.00411696 0.00100705z m-0.00884211 0.01104397 c0.00023392 0.00073850 0.00044444 0.00174555 0.00044444 0.00224908 0.00000000 0.00090634 -0.00065497 0.00328969 -0.00093567 0.00328969 -0.00007018 -0.00000000 -0.00091228 -0.00114132 -0.00187135 -0.00251762 -0.00112281 -0.00161128 -0.00166082 -0.00261833 -0.00152047 -0.00281974 0.00014035 -0.00020141 0.00081871 -0.00077207 0.00152047 -0.00134273     0.00145029 -0.00114132 0.00168421 -0.00104062 0.00236257 0.00114132z m0.00435088 -0.00147701 c0.00072515 0.00036925 0.00217544 0.00171198 0.00217544 0.00198053 0.00000000 0.00030211 -0.00329825 0.00503525 -0.00348538 0.00503525     -0.00042105 -0.00000000 -0.00077193 -0.00208124 -0.00067836 -0.00379322 0.00009357 -0.00164485 0.00070175 -0.00359181 0.00112281 -0.00359181 0.00011696 -0.00000000 0.00049123 0.00016784 0.00086550 0.00036925z m-0.00575439 0.00812353 c-0.00039766 0.00057066 -0.00329825 0.00067137 -0.00397661 0.00016784 -0.00100585 -0.00077207 -0.00112281 -0.00140987 -0.00051462 -0.00302115 0.00112281 -0.00292044 0.00105263 -0.00292044 0.00301754 -0.00006714 0.00133333 0.00191339 0.00168421 0.00261833     0.00147368 0.00292044z m0.00954386 -0.00308828 c0.00042105 0.00110775 0.00070175 0.00224908 0.00063158 0.00251762 -0.00018713 0.00067137 -0.00196491 0.00181269 -0.00287719 0.00181269 -0.00093567 -0.00000000 -0.00191813 -0.00053709     -0.00208187 -0.00110775 -0.00011696 -0.00050352 0.00285380 -0.00513595 0.00332164 -0.00523666 0.00014035 -0.00000000 0.00060819 0.00087278 0.00100585 0.00201410z m-0.02072515 0.00641155 c0.00028070 0.00020141 0.00063158 0.00060423 0.00079532 0.00090634 0.00023392 0.00046996 0.00030409 0.00046996 0.00074854 -0.00010070 0.00025731 -0.00033568 0.00095906 -0.00070493 0.00152047 -0.00077207 0.00145029 -0.00023498 0.00205848 0.00036925 0.00245614 0.00251762 0.00016374 0.00093991 0.00060819 0.00238335     0.00098246 0.00325613 0.00037427 0.00083921 0.00067836 0.00164485 0.00067836 0.00174555 0.00000000 0.00050352 -0.00152047 0.00245049 -0.00191813 0.00245049 -0.00028070 -0.00000000 -0.00056140 0.00043639 -0.00079532 0.00117489 -0.00049123 0.00171198 -0.00042105 0.00184626 0.00060819 0.00124203 0.00051462 -0.00030211 0.00093567 -0.00080564 0.00093567 -0.00107419 0.00000000 -0.00030211 0.00042105 -0.00110775 0.00091228 -0.00181269 l0.00091228 -0.00127560 0.00072515 0.00070493 c0.00039766 0.00040282     0.00140351 0.00117489 0.00224561 0.00174555 0.00105263 0.00067137 0.00161404 0.00127560 0.00187135 0.00194696 0.00049123 0.00137630 0.00044444 0.00184626 -0.00028070 0.00308828 -0.00044444 0.00073850 -0.00056140 0.00114132     -0.00035088 0.00124203 0.00056140 0.00026855 0.00102924 0.00208124 0.00086550 0.00345754 -0.00009357 0.00070493 -0.00023392 0.00137630 -0.00030409 0.00144344 -0.00049123 0.00040282 -0.00449123 -0.00114132 -0.00664327 -0.00258476     -0.00145029 -0.00097348 -0.00145029 -0.00157771 -0.00004678 -0.00157771 0.00332164 -0.00000000 0.00540351 -0.00315542 0.00369591 -0.00557234 -0.00070175 -0.00104062 -0.00156725 -0.00090634 -0.00236257 0.00036925 -0.00081871 0.00130916 -0.00009357 0.00322256 0.00102924 0.00261833 0.00093567 -0.00046996 0.00088889 -0.00144344 -0.00007018 -0.00144344 -0.00067836 -0.00000000 -0.00072515 -0.00050352 -0.00009357 -0.00100705 0.00032749 -0.00026855 0.00058480 -0.00023498 0.00093567 0.00006714 0.00077193 0.00070493 0.00081871 0.00157771 0.00014035 0.00258476 -0.00053801 0.00077207 -0.00084211 0.00087278 -0.00243275 0.00097348 -0.00222222 0.00013427 -0.00353216 -0.00067137 -0.00458480 -0.00288687 -0.00130994 -0.00265190 -0.00102924 -0.00755287 0.00049123 -0.00855992 0.00100585 -0.00063780 0.00196491 0.00144344 0.00112281 0.00245049 -0.00018713 0.00023498 -0.00035088 0.00030211 -0.00037427 0.00013427 -0.00002339 -0.00016784 -0.00004678 -0.00060423 -0.00007018 -0.00097348 -0.00004678 -0.00110775 -0.00093567 -0.00087278     -0.00102924 0.00026855 -0.00016374 0.00194696 0.00116959 0.00261833 0.00203509 0.00104062 0.00079532 -0.00144344 0.00060819 -0.00288687 -0.00046784 -0.00365895 -0.00077193 -0.00060423 -0.00147368 -0.00030211 -0.00226901 0.00090634 -0.00065497 0.00104062 -0.00098246 0.00261833 -0.00098246 0.00486741 0.00000000 0.00251762 -0.00051462 0.00234978 -0.00140351 -0.00046996 -0.00077193 -0.00245049 -0.00128655 -0.00503525 -0.00154386 -0.00772071 -0.00014035 -0.00161128 -0.00011696 -0.00174555 0.00039766 -0.00187983 0.00102924 -0.00026855 0.00140351 -0.00023498 0.00191813 0.00016784z m0.02938012 0.00013427 c0.00004678 0.00006714 -0.00002339 0.00130916 -0.00016374 0.00271903 -0.00028070 0.00258476 -0.00180117 0.00815710 -0.00229240 0.00839208 -0.00016374 0.00006714 -0.00030409 -0.00063780 -0.00039766 -0.00187983 -0.00023392 -0.00369251 -0.00166082 -0.00610943 -0.00315789 -0.00537093 -0.00100585 0.00050352 -0.00138012 0.00191339 -0.00088889 0.00328969     0.00072515 0.00201410 0.00264327 0.00151057 0.00226901 -0.00057066 -0.00023392 -0.00127560 -0.00109942 -0.00127560 -0.00100585 -0.00000000 0.00007018 0.00117489 -0.00035088 0.00120846 -0.00070175 0.00010070 -0.00021053 -0.00070493 -0.00018713 -0.00093991 0.00016374 -0.00151057 0.00102924 -0.00164485 0.00222222 -0.00010070 0.00238596 0.00315542 0.00021053 0.00369251 -0.00100585 0.00681437 -0.00292398 0.00758644 -0.00240936 0.00093991 -0.00519298 -0.00000000 -0.00519298 -0.00177912 0.00000000 -0.00117489 0.00077193 -0.00208124 0.00138012 -0.00157771 0.00070175 0.00053709 0.00063158 0.00127560 -0.00009357 0.00107419 -0.00084211 -0.00020141 -0.00084211 0.00110775 0.00000000 0.00140987 0.00079532 0.00030211 0.00152047 -0.00030211 0.00152047 -0.00124203 0.00000000 -0.00265190 -0.00320468 -0.00308828 -0.00329825 -0.00046996 -0.00009357 0.00258476 0.00145029 0.00426318 0.00397661 0.00426318 0.00065497 -0.00000000 0.00095906 0.00013427 0.00095906 0.00046996 0.00000000 0.00100705 -0.00589474 0.00399463 -0.00687719 0.00345754 -0.00065497 -0.00036925 -0.00051462 -0.00308828 0.00021053 -0.00412890 l0.00060819 -0.00083921 -0.00063158 -0.00107419 c-0.00049123 -0.00080564 -0.00058480 -0.00127560 -0.00046784 -0.00218194 0.00016374 -0.00154414     0.00039766 -0.00187983 0.00198830 -0.00271903 0.00074854 -0.00040282 0.00175439 -0.00110775 0.00224561 -0.00154414 l0.00086550 -0.00087278 0.00079532 0.00127560 c0.00042105 0.00070493 0.00077193 0.00147701 0.00079532 0.00167842 0.00000000 0.00053709 0.00145029 0.00144344 0.00170760 0.00110775 0.00032749 -0.00040282 -0.00046784 -0.00268546 -0.00093567 -0.00268546 -0.00021053 -0.00000000 -0.00074854 -0.00046996 -0.00116959 -0.00104062 l-0.00074854 -0.00107419 0.00065497 -0.00137630 c0.00065497 -0.00134273 0.00142690 -0.00409533 0.00142690 -0.00506882 0.00000000 -0.00124203 0.00194152 -0.00157771 0.00290058 -0.00046996 l0.00060819 0.00070493 0.00074854 -0.00090634 c0.00063158 -0.00077207 0.00088889 -0.00087278 0.00168421 -0.00070493 0.00051462 0.00013427 0.00098246 0.00030211     0.00105263 0.00040282z m-0.01880702 0.00020141 c0.00032749 0.00020141 0.00058480 0.00057066 0.00058480 0.00077207 0.00000000 0.00067137 -0.00325146 0.00527022 -0.00353216 0.00500168 -0.00030409 -0.00023498 -0.00138012 -0.00362538 -0.00138012 -0.00426318 0.00000000 -0.00023498 0.00039766 -0.00077207 0.00088889 -0.00117489 0.00095906 -0.00080564 0.00247953 -0.00097348 0.00343860 -0.00033568z m0.00996491 0.00063780 c0.00098246 0.00073850 0.00102924 0.00124203 0.00030409 0.00322256 -0.00035088 0.00100705 -0.00081871 0.00194696 -0.00098246 0.00204767 -0.00035088 0.00016784 -0.00355556 -0.00419604 -0.00355556 -0.00486741 0.00000000 -0.00097348 0.00308772 -0.00127560 0.00423392 -0.00040282z     m-0.00821053 0.00194696 c0.00042105 0.00114132 0.00028070 0.00443102 -0.00023392 0.00563948 -0.00025731 0.00060423 -0.00060819 0.00110775 -0.00079532 0.00110775 -0.00049123 -0.00000000 -0.00250292 -0.00171198     -0.00264327 -0.00224908 -0.00014035 -0.00050352 0.00264327 -0.00503525 0.00313450 -0.00510238 0.00016374 -0.00000000 0.00039766 0.00026855 0.00053801 0.00060423z m0.00509942 0.00187983 c0.00095906 0.00137630 0.00166082 0.00265190 0.00156725 0.00285331 -0.00025731 0.00060423 -0.00247953 0.00204767 -0.00299415 0.00194696 -0.00112281 -0.00023498 -0.00180117 -0.00486741 -0.00095906 -0.00657939 0.00018713 -0.00040282 0.00042105 -0.00073850 0.00051462 -0.00073850 0.00009357 -0.00000000 0.00093567 0.00114132 0.00187135 0.00251762z"/>
       <path d="M0.8697076023391813 0.1426317556226922  c0.00000000 0.00016784 0.00018713 0.00036925 0.00042105 0.00043639 0.00051462 0.00020141 0.00070175 0.00077207 0.00217544 0.00674723 0.00067836 0.00271903 0.00133333 0.00490097 0.00145029 0.00483384 0.00014035 -0.00006714 0.00044444 -0.00093991 0.00067836 -0.00194696 0.00023392 -0.00100705 0.00058480 -0.00228265 0.00077193 -0.00285331 0.00018713 -0.00057066 0.00037427 -0.00134273 0.00042105 -0.00167842 0.00021053 -0.00161128 0.00046784 -0.00251762     0.00067836 -0.00241692 0.00011696 0.00006714 0.00067836 0.00208124 0.00126316 0.00443102 0.00056140 0.00238335 0.00107602 0.00439745 0.00114620 0.00449815 0.00018713 0.00026855 0.00023392 0.00010070 0.00088889 -0.00261833 0.00175439 -0.00715005 0.00217544 -0.00855992 0.00269006 -0.00892917 0.00074854 -0.00053709 0.00039766 -0.00080564 -0.00105263 -0.00080564 -0.00123977 -0.00000000 -0.00166082 0.00043639 -0.00074854 0.00077207 0.00028070 0.00010070 0.00046784 0.00040282 0.00039766 0.00063780 -0.00007018 0.00023498 -0.00042105 0.00198053 -0.00079532 0.00386036 -0.00037427 0.00191339 -0.00077193 0.00345754 -0.00091228 0.00345754 -0.00011696 -0.00000000 -0.00058480 -0.00154414 -0.00102924 -0.00345754 -0.00042105 -0.00187983     -0.00084211 -0.00362538 -0.00088889 -0.00386036 -0.00007018 -0.00026855 0.00009357 -0.00053709 0.00037427 -0.00063780 0.00100585 -0.00036925 0.00044444 -0.00077207 -0.00114620 -0.00077207 -0.00156725 -0.00000000 -0.00217544 0.00040282 -0.00116959 0.00077207 0.00030409 0.00010070 0.00046784 0.00046996 0.00046784 0.00097348 0.00000000 0.00100705 -0.00138012 0.00698221 -0.00161404 0.00698221 -0.00018713 -0.00000000 -0.00074854 -0.00208124 -0.00154386 -0.00570661 -0.00035088 -0.00164485 -0.00035088 -0.00184626     -0.00002339 -0.00221551 0.00065497 -0.00067137 0.00042105 -0.00080564 -0.00126316 -0.00080564 -0.00088889 -0.00000000 -0.00163743 0.00013427 -0.00163743 0.00030211z"/>
       <path d="M0.9361403508771929 0.1429674387378315  c0.00000000 0.00016784 0.00023392 0.00036925 0.00053801 0.00043639 0.00051462 0.00010070 0.00051462 0.00016784 0.00051462 0.00530379 0.00000000 0.00516952 0.00000000 0.00520309     -0.00053801 0.00530379 -0.00030409 0.00006714 -0.00051462 0.00026855 -0.00046784 0.00043639 0.00004678 0.00020141 0.00121637 0.00033568 0.00264327 0.00033568 0.00458480 0.00003357 0.00428070 0.00013427 0.00467836 -0.00124203 0.00063158 -0.00221551 0.00028070 -0.00245049 -0.00091228 -0.00063780 -0.00070175 0.00107419 -0.00091228 0.00117489 -0.00205848 0.00117489 -0.00070175 -0.00000000 -0.00138012 -0.00016784 -0.00154386 -0.00040282 -0.00032749 -0.00046996 -0.00037427 -0.00449815     -0.00007018 -0.00476670 0.00046784 -0.00043639 0.00170760 0.00023498 0.00191813 0.00104062 0.00032749 0.00127560 0.00067836 0.00057066 0.00067836 -0.00140987 0.00000000 -0.00198053 -0.00035088 -0.00268546 -0.00067836 -0.00140987 -0.00021053 0.00080564 -0.00145029 0.00147701 -0.00191813 0.00104062 -0.00011696 -0.00010070 -0.00021053 -0.00120846 -0.00021053 -0.00251762 l0.00000000 -0.00231621 0.00107602 -0.00000000 c0.00123977 -0.00000000 0.00182456 0.00040282 0.00261988 0.00174555 0.00074854 0.00127560 0.00107602 0.00080564     0.00067836 -0.00093991 l-0.00032749 -0.00130916 -0.00329825 -0.00010070 c-0.00201170 -0.00003357 -0.00332164 0.00003357 -0.00332164 0.00023498z"/>
       <path d="M0.9079064327485381 0.19029875797247398  c-0.00079532 0.00053709 -0.00102924 0.00090634 -0.00126316 0.00198053 -0.00039766 0.00201410 0.00030409 0.00392749 0.00198830 0.00537093 0.00154386 0.00137630 0.00196491 0.00201410 0.00215205 0.00328969 0.00009357 0.00070493 0.00000000 0.00124203 -0.00032749 0.00181269 -0.00037427 0.00067137 -0.00063158 0.00077207 -0.00159064 0.00070493 -0.00121637 -0.00006714 -0.00189474 -0.00067137     -0.00203509 -0.00184626 -0.00007018 -0.00067137 -0.00009357 -0.00067137 -0.00032749 0.00013427 -0.00011696 0.00046996 -0.00030409 0.00127560 -0.00039766 0.00177912 l-0.00016374 0.00093991 0.00217544 -0.00016784 c0.00119298 -0.00006714 0.00245614 -0.00030211     0.00280702 -0.00053709 0.00084211 -0.00057066 0.00145029 -0.00241692 0.00126316 -0.00386036 -0.00016374 -0.00117489 -0.00142690 -0.00308828 -0.00269006 -0.00399463 -0.00217544 -0.00164485 -0.00219883 -0.00540450 -0.00004678 -0.00540450 0.00107602 -0.00000000     0.00189474 0.00090634 0.00189474 0.00208124 0.00000000 0.00067137 0.00044444 0.00117489 0.00049123 0.00050352 0.00000000 -0.00013427 0.00004678 -0.00087278 0.00009357 -0.00161128 l0.00011696 -0.00137630 -0.00123977 -0.00023498 c-0.00170760 -0.00026855 -0.00180117 -0.00026855     -0.00290058 0.00043639z"/>
     </clipPath>
     <clipPath id="clip-path-entrance">
      <desc>Entrance</desc>
      <path d="M0.3880701754385965 0.42994293387042637  c0.00028070 0.00070493 0.00121637 0.00268546 0.00210526 0.00443102 0.00360234 0.00708291 0.00388304 0.00782142 0.00502924 0.01278953 l0.00107602 0.00473313 -0.00037427 0.00473313 c-0.00021053 0.00261833 -0.00058480 0.00691507 -0.00081871 0.00953340 -0.00046784 0.00473313 -0.00046784 0.00480027 -0.00175439 0.00778785 -0.00121637 0.00288687     -0.00130994 0.00328969 -0.00196491 0.00815710 -0.00037427 0.00281974 -0.00095906 0.00792212 -0.00130994 0.01134609 -0.00037427 0.00372608 -0.00086550 0.00715005 -0.00121637 0.00855992 -0.00135673 0.00543807 -0.00133333 0.00439745 -0.00032749 0.01389728 0.00128655 0.01188318 0.00121637 0.01154750 0.00311111 0.01584424 0.00088889 0.00208124 0.00170760 0.00409533 0.00182456 0.00453172 0.00014035 0.00046996 -0.00004678 0.00362538 -0.00049123 0.00892917 -0.00065497 0.00745217 -0.00070175 0.00886203 -0.00063158 0.01638134 l0.00009357 0.00822424 0.00088889 0.00486741 c0.00049123 0.00268546 0.00095906 0.00496811 0.00105263 0.00510238 0.00009357 0.00013427 0.00060819 -0.00140987 0.00119298 -0.00342397 l0.00102924 -0.00369251 0.02007018 -0.00000000 c0.01511111 -0.00000000 0.02007018 0.00010070 0.02007018 0.00040282 0.00000000 0.00020141 0.00063158 0.00130916 0.00140351 0.00248406 0.00077193 0.00114132 0.00140351 0.00221551 0.00140351 0.00241692 0.00000000 0.00016784 0.00025731 0.00046996 0.00058480 0.00067137 0.00032749 0.00020141 0.00086550 0.00097348 0.00121637 0.00171198 0.00056140 0.00110775 0.00123977 0.00177912 0.00198830 0.00184626 0.00014035 0.00003357 0.00194152 -0.00342397 0.00575439 -0.01097684 0.00070175 -0.00140987 0.00362573 -0.00476670 0.00767251 -0.00886203 0.00051462 -0.00053709 0.00187135 -0.00107419 0.00444444 -0.00177912 0.00439766 -0.00124203 0.00514620 -0.00154414 0.00533333 -0.00221551 0.00007018 -0.00030211 0.00014035 -0.01970460 0.00014035 -0.04313528 0.00000000 -0.03705942 -0.00004678 -0.04293387 -0.00035088 -0.04488083 -0.00058480 -0.00355824     -0.00114620 -0.00469956 -0.00304094 -0.00610943 -0.00098246 -0.00070493 -0.00175439 -0.00151057 -0.00191813 -0.00201410 -0.00018713 -0.00050352 -0.00030409 -0.00221551 -0.00030409 -0.00429674 0.00000000 -0.00325613 0.00004678 -0.00365895 0.00105263 -0.00755287 0.00058480 -0.00224908 0.00128655 -0.00456529 0.00156725 -0.00510238 0.00028070 -0.00057066 0.00233918 -0.00453172 0.00456140 -0.00882847 l0.00404678 -0.00778785 -0.04236257 -0.00000000 -0.04233918 -0.00000000 0.00049123 0.00127560z"/>
     </clipPath>
     <clipPath id="clip-path-goblin-blind">
      <desc>Goblin Blind</desc>
      <path d="M0.46318128654970764 0.6365223229271568  c-0.00039766 0.00355824 -0.00072515 0.00681437 -0.00072515 0.00718362 0.00000000 0.00040282 -0.00042105 0.00228265 -0.00091228 0.00419604     -0.00084211 0.00318899 -0.00145029 0.00604230 -0.00421053 0.01960389 -0.00109942 0.00537093 -0.00128655 0.00577375 -0.00638596 0.01554213 -0.00100585 0.00187983 -0.00217544 0.00426318     -0.00264327 0.00527022 -0.00044444 0.00100705 -0.00091228 0.00184626 -0.00102924 0.00184626 -0.00011696 -0.00000000 -0.00030409 0.00033568 -0.00039766 0.00073850 -0.00032749 0.00161128 -0.00294737 0.00621014     -0.00435088 0.00765358 -0.00074854 0.00080564 -0.00161404 0.00194696 -0.00189474 0.00248406 -0.00028070 0.00057066 -0.00105263 0.00191339 -0.00173099 0.00295401 -0.00067836 0.00107419 -0.00123977 0.00208124     -0.00123977 0.00228265 0.00000000 0.00020141 -0.00039766 0.00097348 -0.00088889 0.00177912 -0.00049123 0.00077207 -0.00140351 0.00261833 -0.00203509 0.00409533 -0.00063158 0.00147701 -0.00142690 0.00315542 -0.00180117 0.00369251 -0.00035088 0.00057066 -0.00065497 0.00130916 -0.00065497 0.00161128 0.00000000 0.00030211 -0.00021053 0.00073850 -0.00049123 0.00097348 -0.00051462 0.00046996 -0.00161404 0.00325613 -0.00161404 0.00409533 0.00000000 0.00030211 -0.00030409 0.00147701 -0.00067836 0.00261833 -0.00081871 0.00258476 -0.00116959 0.00399463 -0.00147368 0.00597516 -0.00011696 0.00083921 -0.00030409 0.00181269 -0.00042105 0.00218194 -0.00023392 0.00073850     -0.00030409 0.00120846 -0.00084211 0.00503525 -0.00021053 0.00147701 -0.00063158 0.00372608 -0.00095906 0.00503525 -0.00053801 0.00218194 -0.00077193 0.00422961 -0.00147368 0.01309164 -0.00014035 0.00184626     -0.00042105 0.00473313 -0.00063158 0.00644512 -0.00023392 0.00198053 -0.00032749 0.00402820 -0.00023392 0.00574018 0.00007018 0.00147701 0.00002339 0.00281974 -0.00007018 0.00298758 -0.00011696 0.00013427 -0.00046784 0.00137630 -0.00077193 0.00271903 -0.00032749 0.00134273 -0.00063158 0.00255119 -0.00072515 0.00265190 -0.00007018 0.00013427 -0.00014035 0.00043639 -0.00014035 0.00070493 0.00000000 0.00030211 -0.00014035 0.00077207 -0.00032749 0.00104062     -0.00030409 0.00050352 -0.00053801 0.00167842 -0.00105263 0.00557234 -0.00009357 0.00073850 -0.00028070 0.00164485 -0.00042105 0.00201410 -0.00014035 0.00036925 -0.00032749 0.00151057 -0.00042105 0.00251762 -0.00009357 0.00100705 -0.00030409 0.00214837 -0.00044444 0.00251762 -0.00016374 0.00036925 -0.00044444 0.00194696 -0.00060819 0.00352467 -0.00016374 0.00157771 -0.00049123 0.00399463 -0.00074854 0.00537093 -0.00025731 0.00137630 -0.00060819 0.00446459 -0.00079532 0.00681437 -0.00018713 0.00238335 -0.00037427 0.00446459 -0.00044444 0.00463243 -0.00007018 0.00016784 -0.00030409 0.00198053 -0.00049123 0.00406177 -0.00018713 0.00208124 -0.00044444 0.00476670 -0.00053801 0.00597516 -0.00011696 0.00120846 -0.00042105 0.00345754 -0.00067836 0.00503525 -0.00028070 0.00157771 -0.00060819 0.00399463 -0.00074854 0.00537093 -0.00014035 0.00137630 -0.00046784 0.00439745 -0.00074854 0.00671366 -0.00025731 0.00231621 -0.00056140 0.00594159 -0.00067836 0.00805639 -0.00011696 0.00211480 -0.00032749 0.00429674 -0.00044444 0.00483384 -0.00014035 0.00053709 -0.00023392 0.00379322 -0.00025731 0.00721719 -0.00002339 0.00802283 -0.00060819 0.01745552 -0.00116959 0.01933535 -0.00011696 0.00036925 -0.00030409 0.00187983 -0.00042105 0.00335683 -0.00028070 0.00315542 -0.00063158 0.00597516 -0.00107602 0.00855992 -0.00018713 0.00100705 -0.00037427 0.00245049 -0.00044444 0.00318899 -0.00014035 0.00130916 -0.00035088 0.00275260 -0.00081871 0.00537093 -0.00014035 0.00073850     -0.00025731 0.00184626 -0.00025731 0.00248406 0.00000000 0.00060423 -0.00037427 0.00328969 -0.00081871 0.00594159 -0.00044444 0.00261833 -0.00081871 0.00553877 -0.00081871 0.00647868 0.00000000 0.00090634 -0.00009357 0.00171198 -0.00023392 0.00177912 -0.00030409 0.00013427 -0.00070175 0.00275260 -0.00102924 0.00715005 -0.00016374 0.00201410 -0.00039766 0.00412890 -0.00056140 0.00463243 -0.00016374 0.00053709 -0.00028070 0.00144344     -0.00028070 0.00208124 0.00000000 0.00063780 -0.00009357 0.00120846 -0.00021053 0.00130916 -0.00009357 0.00010070 -0.00025731 0.00080564 -0.00035088 0.00154414 -0.00007018 0.00077207 -0.00023392 0.00164485 -0.00035088 0.00194696     -0.00039766 0.00110775 -0.00093567 0.00359181 -0.00109942 0.00510238 -0.00009357 0.00083921 -0.00023392 0.00167842 -0.00035088 0.00184626 -0.00009357 0.00020141 -0.00042105 0.00124203 -0.00070175 0.00234978 -0.00028070 0.00110775 -0.00077193 0.00234978 -0.00107602 0.00275260 -0.00028070 0.00040282 -0.00053801 0.00110775 -0.00053801 0.00157771 0.00000000 0.00057066 -0.00042105 0.00134273 -0.00145029 0.00268546 l-0.00147368 0.00187983     0.15387135 -0.00000000 0.15384795 -0.00000000 0.00000000 -0.00083921 c0.00000000 -0.00046996 -0.00067836 -0.00953340 -0.00152047 -0.02020812 l-0.00152047 -0.01936892 -0.00224561 -0.00550520 c-0.00130994 -0.00318899 -0.00247953 -0.00563948     -0.00276023 -0.00580732 -0.00028070 -0.00016784 -0.00343860 -0.00177912 -0.00704094 -0.00359181 l-0.00654971 -0.00328969 -0.00191813 -0.01406512 -0.00194152 -0.01409869 -0.00315789 -0.00678080 -0.00315789 -0.00681437     0.00467836 -0.00946626 c0.00257310 -0.00516952 0.00467836 -0.00960054 0.00467836 -0.00980195 0.00000000 -0.00020141 -0.00145029 -0.00657939 -0.00325146 -0.01413226 l-0.00322807 -0.01376301 -0.00212865 -0.00208124 -0.00210526 -0.00211480 -0.00512281 -0.00053709 -0.00509942 -0.00050352 -0.00460819 -0.00406177 -0.00463158 -0.00406177 0.00000000 -0.00154414 c0.00000000 -0.00463243 0.00014035 -0.00422961 -0.00500585 -0.01352803 l-0.00472515 -0.00852635     -0.00102924 -0.01332662 -0.00102924 -0.01336019 -0.00407018 -0.00530379 -0.00407018 -0.00530379 -0.00414035 -0.00023498 c-0.00509942 -0.00026855 -0.01279532 -0.00077207 -0.01653801 -0.00107419 l-0.00283041 -0.00020141     -0.00173099 -0.00500168 -0.00173099 -0.00503525 -0.00152047 -0.00063780 c-0.00084211 -0.00033568 -0.00778947 -0.00328969 -0.01543860 -0.00654582 l-0.01391813 -0.00590802 -0.00491228 -0.00399463 -0.00493567 -0.00402820     -0.00191813 -0.00000000 c-0.00182456 -0.00000000 -0.00208187 0.00010070 -0.00734503 0.00302115 l-0.00542690 0.00302115 -0.00435088 -0.00154414 c-0.00238596 -0.00083921 -0.00687719 -0.00241692 -0.00998830 -0.00352467     l-0.00566082 -0.00198053 -0.00423392 -0.00000000 c-0.00416374 -0.00000000 -0.00430409 0.00003357 -0.00893567 0.00151057 -0.00463158 0.00147701 -0.00472515 0.00151057 -0.00519298 0.00087278 -0.00028070 -0.00033568     -0.00306433 -0.00389392 -0.00622222 -0.00792212 -0.00315789 -0.00402820 -0.00750877 -0.00973481 -0.00970760 -0.01272239 l-0.00397661 -0.00543807 -0.00923977 -0.00120846 -0.00923977 -0.00124203 -0.00355556 -0.00530379 -0.00355556 -0.00527022 0.00014035 -0.00459886 c0.00011696 -0.00369251 0.00000000 -0.00674723 -0.00051462 -0.01503860 -0.00037427 -0.00574018 -0.00074854 -0.01043974 -0.00081871 -0.01043974 -0.00009357 -0.00000000 -0.00049123 0.00292044 -0.00091228 0.00644512z"/>
     </clipPath>
     <clipPath id="clip-path-klargs-cave">
      <desc>Klarg's Cave</desc>
      <path d="M0.6878596491228071 0.4713326619671031  c-0.00566082 0.00070493 -0.01036257 0.00140987 -0.01045614 0.00154414 -0.00007018 0.00016784 -0.00175439 0.00547163 -0.00371930 0.01184961     -0.00196491 0.00637798 -0.00367251 0.01178248 -0.00381287 0.01201746 -0.00011696 0.00020141 -0.00259649 0.00305472 -0.00547368 0.00631084 l-0.00523977 0.00590802 0.00014035 0.00204767 c0.00007018 0.00114132 0.00028070 0.00493454 0.00049123 0.00842565 l0.00035088 0.00634441 0.00280702 0.00765358 0.00278363 0.00765358 -0.00444444 0.01174891 -0.00444444 0.01174891 0.00000000 0.02101376 0.00000000 0.02101376 0.00049123 -0.00010070 c0.00042105 -0.00010070 0.00098246 0.00124203 0.00423392 0.00996979 0.00205848 0.00553877 0.00385965 0.01037261 0.00404678 0.01074186 0.00016374 0.00040282 0.00261988 0.00318899 0.00547368 0.00617657 0.00285380 0.00302115 0.00523977 0.00560591 0.00528655 0.00574018 0.00004678 0.00013427 -0.00053801 0.00547163 -0.00130994 0.01184961 l-0.00138012 0.01164820 0.00584795 0.01309164     0.00584795 0.01309164 0.00138012 0.01195032 c0.00077193 0.00657939 0.00145029 0.01205102 0.00152047 0.01211816 0.00007018 0.00010070 0.00692398 0.00318899 0.01525146 0.00688150 l0.01511111 0.00668009     0.00463158 0.00600873 0.00463158 0.00600873 0.01188304 0.00070493 c0.00652632 0.00036925 0.01192982 0.00073850 0.01197661 0.00083921 0.00007018 0.00006714 0.00301754 0.01540785 0.00659649 0.03407184     0.00357895 0.01869755 0.00659649 0.03407184 0.00669006 0.03420611 0.00011696 0.00016784 0.00329825 0.00218194 0.00706433 0.00449815 l0.00683041 0.00426318 0.00561404 0.00604230 0.00561404 0.00604230 0.00800000 -0.00100705 0.00797661 -0.00100705 0.01073684 0.00402820 0.01073684 0.00402820 0.01005848 -0.00772071 0.01003509 -0.00772071 0.00306433 -0.00000000 0.00304094 -0.00000000 0.01052632 0.00570661     0.01050292 0.00570661 0.00989474 -0.00218194 c0.00542690 -0.00120846 0.01017544 -0.00228265 0.01052632 -0.00241692 0.00037427 -0.00016784 0.00189474 -0.00204767 0.00362573 -0.00453172 l0.00297076 -0.00426318 0.00652632 -0.00134273     c0.00402339 -0.00080564 0.00664327 -0.00151057 0.00680702 -0.00177912 0.00016374 -0.00023498 0.00348538 -0.00715005 0.00734503 -0.01537429 l0.00706433 -0.01493790 0.00538012 -0.00755287 0.00538012 -0.00755287 -0.00025731 -0.01141323     c-0.00021053 -0.00919772 -0.00046784 -0.01466935 -0.00142690 -0.02819738 l-0.00116959 -0.01678416 -0.00397661 -0.00574018 -0.00397661 -0.00570661 0.00025731 -0.00765358 0.00025731 -0.00765358 0.00514620 -0.01003693     0.00512281 -0.01003693 0.00000000 -0.01409869 0.00000000 -0.01406512 -0.00140351 -0.00439745 -0.00140351 -0.00439745 0.00000000 -0.01372944 0.00000000 -0.01376301 -0.00353216 -0.00795569 c-0.00194152 -0.00439745 -0.00371930 -0.00822424     -0.00392982 -0.00855992 -0.00021053 -0.00030211 -0.00243275 -0.00177912 -0.00493567 -0.00332326 -0.00250292 -0.00151057 -0.00465497 -0.00285331 -0.00474854 -0.00298758 -0.00011696 -0.00013427 -0.00063158 -0.00265190 -0.00112281 -0.00557234     -0.00051462 -0.00295401 -0.00102924 -0.00590802 -0.00116959 -0.00661296 l-0.00023392 -0.00124203 -0.00893567 0.00006714 -0.00891228 0.00010070 -0.00647953 0.01191675 c-0.00584795 0.01080900 -0.00680702 0.01238671 -0.01022222 0.01705270 l-0.00374269 0.00513595 -0.00313450 -0.00288687 c-0.00170760 -0.00157771 -0.00318129 -0.00298758 -0.00327485 -0.00312185 -0.00009357 -0.00013427 -0.00049123 -0.00610943 -0.00088889 -0.01329305 l-0.00070175 -0.01302450 -0.00208187 -0.00429674 -0.00210526 -0.00429674 -0.00070175 -0.00563948 c-0.00037427 -0.00308828 -0.00084211 -0.00580732 -0.00100585 -0.00600873 -0.00016374 -0.00023498 -0.00575439 -0.00543807     -0.01239766 -0.01154750 l-0.01209357 -0.01111111 -0.03511111 -0.00000000 -0.03511111 -0.00000000 -0.01005848 0.00134273 -0.01005848 0.00137630 -0.00909942 0.00735146 -0.00912281 0.00738503     -0.00631579 -0.00808996 c-0.00346199 -0.00443102 -0.00631579 -0.00825780 -0.00631579 -0.00845921 0.00000000 -0.00023498 -0.00021053 -0.00651225 -0.00046784 -0.01399799 -0.00025731 -0.00748573 -0.00046784 -0.01379658 -0.00046784 -0.01399799 0.00000000 -0.00023498 -0.00252632 -0.00315542 -0.00559064 -0.00644512 l-0.00559064 -0.00604230 -0.00418713 -0.00731789 c-0.00364912 -0.00637798 -0.00428070 -0.00731789 -0.00486550 -0.00738503 -0.00039766 -0.00000000 -0.00533333 0.00053709 -0.01097076 0.00127560z"/>
     </clipPath>
     <clipPath id="clip-path-legend">
      <desc>Map Legend</desc>
      <path d="M0.05239766081871345 0.7614971466935213  l0.00000000 0.18277946 0.07204678 -0.00000000 0.07204678 -0.00000000 0.00000000 -0.18277946 0.00000000 -0.18277946 -0.07204678 -0.00000000 -0.07204678 -0.00000000 0.00000000 0.18277946z"/>
     </clipPath>
     <clipPath id="clip-path-overpass">
      <desc>Overpass</desc>
      <path d="M0.5125146198830409 0.1913058073178919  c-0.00051462 0.00110775 -0.00093567 0.00211480 -0.00093567 0.00224908 0.00000000 0.00050352 -0.00460819 0.00674723 -0.00542690 0.00735146     -0.00049123 0.00036925 -0.00088889 0.00077207 -0.00088889 0.00090634 0.00000000 0.00016784 -0.00011696 0.00026855 -0.00025731 0.00026855 -0.00030409 -0.00000000 -0.00231579 0.00228265 -0.00273684 0.00312185 -0.00016374 0.00030211 -0.00065497 0.00077207 -0.00105263 0.00104062 -0.00042105 0.00023498 -0.00128655 0.00124203 -0.00194152 0.00218194 -0.00067836 0.00093991 -0.00133333 0.00171198 -0.00147368 0.00171198 -0.00014035 -0.00000000 -0.00065497 0.00050352 -0.00112281 0.00107419 -0.00049123 0.00060423 -0.00109942 0.00127560 -0.00133333 0.00147701 -0.00025731 0.00020141 -0.00056140 0.00063780 -0.00070175 0.00097348 -0.00037427 0.00093991 -0.00067836 0.00147701 -0.00119298 0.00221551     -0.00091228 0.00130916 -0.00121637 0.00164485 -0.00140351 0.00164485 -0.00011696 -0.00000000 -0.00070175 0.00070493 -0.00130994 0.00154414 -0.00084211 0.00117489 -0.00105263 0.00171198 -0.00095906 0.00234978 0.00004678 0.00043639     0.00021053 0.00080564 0.00032749 0.00080564 0.00011696 -0.00000000 0.01270175 0.01581067 0.02797661 0.03514602 0.01527485 0.01936892 0.02802339 0.03551527 0.02835088 0.03591809 l0.00058480 0.00073850     -0.00215205 0.00621014 c-0.00119298 0.00345754 -0.00217544 0.00631084 -0.00217544 0.00641155 0.00000000 0.00010070 0.00084211 0.00016784 0.00184795 0.00016784 0.00119298 -0.00000000 0.00189474 0.00013427 0.00194152 0.00036925 0.00007018 0.00026855 0.00067836 0.00013427 0.00196491 -0.00050352 l0.00184795 -0.00087278 0.01087719 -0.01560926 c0.00598830 -0.00859349 0.01092398 -0.01570997 0.01097076 -0.01577711 0.00007018 -0.00013427 -0.05840936 -0.08509567 -0.05857310 -0.08509567 -0.00007018 -0.00000000 -0.00051462 0.00090634 -0.00105263 0.00198053z"/>
     </clipPath>
     <clipPath id="clip-path-path-to-den">
      <desc>Path to Goblin Den</desc>
      <path d="M0.3939883040935673 0.06230278616985566  l-0.00308772 0.00214837 -0.00336842 -0.00124203 -0.00334503 -0.00124203 -0.00596491 0.00245049 c-0.00327485 0.00137630 -0.00626901 0.00261833     -0.00664327 0.00275260 -0.00060819 0.00023498 -0.00100585 0.00100705 -0.00264327 0.00510238 l-0.00191813 0.00480027 -0.00437427 0.00097348 -0.00437427 0.00097348 -0.00376608 -0.00278617 -0.00374269 -0.00275260 -0.00526316 -0.00067137 c-0.00767251 -0.00093991 -0.00664327 -0.00127560 -0.00902924 0.00295401 -0.00109942 0.00201410 -0.00219883 0.00372608 -0.00240936 0.00382679 -0.00021053 0.00010070 -0.00636257 0.00208124 -0.01368421 0.00436388 l-0.01330994 0.00412890 -0.00301754 0.00476670 c-0.00163743 0.00258476 -0.00479532 0.00788855 -0.00699415 0.01174891 -0.00369591 0.00651225     -0.00397661 0.00708291 -0.00390643 0.00819067 0.00007018 0.00063780 0.00035088 0.00322256 0.00065497 0.00570661 l0.00053801 0.00453172 -0.00138012 0.00621014 -0.00138012 0.00617657 -0.00269006 0.00164485 c-0.00147368 0.00090634 -0.00559064 0.00352467 -0.00912281 0.00580732 -0.00580117 0.00375965 -0.00683041 0.00453172 -0.01029240 0.00795569 l-0.00385965 0.00375965     -0.00318129 0.00755287 -0.00315789 0.00755287 -0.00280702 0.00255119 -0.00278363 0.00251762 -0.00229240 0.00855992 -0.00226901 0.00852635 0.00046784 0.00684794 c0.00025731 0.00375965 0.00046784 0.00735146 0.00046784 0.00795569 0.00000000 0.00077207 -0.00065497 0.00285331 -0.00208187 0.00657939 l-0.00205848 0.00547163 -0.00067836 0.00597516 -0.00065497 0.00594159 -0.00189474 0.00080564     c-0.00102924 0.00046996 -0.00334503 0.00144344 -0.00514620 0.00221551 -0.00250292 0.00107419 -0.00343860 0.00164485 -0.00397661 0.00238335 l-0.00070175 0.00097348 0.03069006 -0.00000000 0.03066667 -0.00000000 0.00072515 -0.00164485 c0.00060819 -0.00134273 0.00145029 -0.00231621 0.00500585 -0.00570661 l0.00425731 -0.00406177 0.00138012 -0.00812353 c0.00121637 -0.00735146 0.00147368 -0.00849278 0.00261988 -0.01161464 0.00116959 -0.00318899     0.00130994 -0.00382679 0.00196491 -0.00906344 l0.00072515 -0.00560591 0.00589474 -0.00845921 0.00589474 -0.00845921 0.00446784 -0.00053709 0.00449123 -0.00053709 0.00292398 -0.00221551 c0.00210526 -0.00161128 0.00301754 -0.00248406     0.00320468 -0.00308828 0.00014035 -0.00046996 0.00149708 -0.00422961 0.00299415 -0.00832494 l0.00271345 -0.00745217 0.00643275 -0.00436388 0.00645614 -0.00436388 0.01113450 -0.00419604 c0.00994152 -0.00379322 0.01132164 -0.00422961 0.01305263 -0.00422961 l0.00191813 -0.00000000 0.00507602 0.00527022 0.00505263 0.00527022 0.00561404 0.00245049 c0.00514620 0.00228265 0.00622222 0.00261833 0.01228070 0.00399463 0.00364912 0.00080564 0.00697076 0.00147701 0.00734503 0.00147701 0.00037427 -0.00000000 0.00339181 -0.00077207 0.00669006 -0.00167842 l0.00601170 -0.00167842 0.00395322 0.00248406 c0.00325146 0.00201410 0.00439766 0.00258476 0.00629240 0.00302115 0.00126316 0.00026855 0.00233918 0.00057066 0.00236257 0.00060423 0.00002339 0.00006714 0.00051462 0.00369251 0.00107602 0.00805639 l0.00100585 0.00798926 0.00760234 0.00845921 c0.00418713 0.00466600     0.00774269 0.00866062 0.00790643 0.00882847 0.00025731 0.00026855 0.00018713 0.00157771 -0.00039766 0.00731789 l-0.00070175 0.00698221 0.00072515 0.00412890 0.00072515 0.00409533 0.00259649 0.00063780     0.00261988 0.00063780 0.00152047 0.00218194 c0.00084211 0.00120846 0.00269006 0.00399463 0.00409357 0.00617657 l0.00257310 0.00396106 0.00357895 0.00080564 c0.00196491 0.00046996 0.00376608 0.00083921     0.00402339 0.00083921 0.00025731 -0.00000000 0.00210526 -0.00114132 0.00411696 -0.00251762 0.00336842 -0.00231621 0.00362573 -0.00255119 0.00355556 -0.00332326 -0.00004678 -0.00063780 0.00018713 -0.00124203 0.00098246 -0.00238335 0.00056140 -0.00083921 0.00112281 -0.00151057     0.00126316 -0.00151057 0.00044444 -0.00000000 0.00198830 -0.00228265 0.00261988 -0.00386036 0.00014035 -0.00033568 0.00044444 -0.00077207 0.00070175 -0.00097348 0.00023392 -0.00020141 0.00084211 -0.00087278 0.00133333 -0.00147701 0.00046784 -0.00057066 0.00098246 -0.00107419 0.00112281 -0.00107419 0.00014035 -0.00000000 0.00079532 -0.00077207 0.00147368 -0.00171198 0.00065497 -0.00093991 0.00152047 -0.00194696 0.00194152 -0.00218194 0.00039766 -0.00026855 0.00088889 -0.00073850 0.00105263 -0.00104062 0.00042105 -0.00083921 0.00243275 -0.00312185 0.00273684 -0.00312185 0.00014035 -0.00000000 0.00025731 -0.00010070 0.00025731 -0.00026855 0.00000000 -0.00013427 0.00039766 -0.00053709 0.00088889 -0.00090634 0.00138012 -0.00104062 0.00278363 -0.00325613 0.00654971 -0.01050688 l0.00355556 -0.00678080 0.00299415 -0.00003357 c0.00163743 -0.00003357 0.00390643 -0.00013427     0.00505263 -0.00026855 l0.00205848 -0.00020141 0.00128655 -0.00513595 c0.00072515 -0.00288687 0.00119298 -0.00527022 0.00109942 -0.00543807 -0.00011696 -0.00016784 -0.00783626 -0.00610943 -0.01716959 -0.01319235 l-0.01695906 -0.01289023     -0.00549708 -0.00194696 c-0.00301754 -0.00107419 -0.00552047 -0.00198053 -0.00556725 -0.00201410 -0.00004678 -0.00006714 -0.00077193 -0.00399463 -0.00161404 -0.00876133 l-0.00154386 -0.00869419 -0.00222222 -0.00446459 c-0.00121637 -0.00245049 -0.00229240 -0.00453172 -0.00240936 -0.00463243 -0.00011696 -0.00010070 -0.00166082 -0.00040282 -0.00341520 -0.00067137 -0.00250292 -0.00040282 -0.00488889 -0.00110775 -0.01057310 -0.00325613 l-0.00734503 -0.00271903     -0.00224561 -0.00406177 c-0.00126316 -0.00221551 -0.00388304 -0.00741860 -0.00582456 -0.01161464 l-0.00357895 -0.00755287 -0.00669006 -0.00228265 -0.00669006 -0.00224908 -0.00421053 -0.00308828 -0.00421053 -0.00308828     -0.00067836 -0.00271903 -0.00067836 -0.00275260 -0.00425731 -0.00402820 -0.00425731 -0.00402820 -0.00619883 -0.00087278 c-0.00341520 -0.00046996 -0.00657310 -0.00087278 -0.00701754 -0.00083921 -0.00049123 -0.00000000 -0.00205848 0.00087278 -0.00390643 0.00218194z"/>
     </clipPath>
     <clipPath id="clip-path-steep-passage-1">
      <desc>Steep Passage 1</desc>
      <path d="M0.4861052631578947 0.22480698220879491  c-0.00215205 0.00147701 -0.00350877 0.00261833 -0.00334503 0.00275260 0.00021053 0.00016784 -0.00007018 0.00100705 -0.00088889 0.00265190 l-0.00119298 0.00241692 -0.00390643 0.00281974 -0.00390643 0.00285331 -0.00467836 0.00825780 -0.00467836 0.00822424 -0.00168421 0.00815710 c-0.00093567 0.00446459 -0.00180117 0.00866062 -0.00194152 0.00933199 l-0.00023392 0.00117489 -0.00610526 0.00147701 -0.00610526 0.00147701 -0.00764912 0.00822424 c-0.00418713 0.00456529 -0.00846784 0.00923129 -0.00949708 0.01037261     l-0.00187135 0.00214837 -0.00121637 0.00788855 c-0.00065497 0.00433031 -0.00123977 0.00792212 -0.00128655 0.00798926 -0.00002339 0.00003357 -0.00170760 -0.00104062 -0.00369591 -0.00241692 l-0.00364912 -0.00248406     -0.00138012 -0.00375965 -0.00140351 -0.00375965 -0.00526316 -0.00305472 -0.00526316 -0.00302115 -0.00292398 -0.00664653 c-0.00161404 -0.00365895 -0.00308772 -0.00674723 -0.00327485 -0.00691507 -0.00018713 -0.00013427     -0.00383626 -0.00177912 -0.00811696 -0.00365895 l-0.00774269 -0.00339040 -0.00229240 0.00124203 -0.00226901 0.00124203 -0.00247953 -0.00093991 c-0.00135673 -0.00053709 -0.00313450 -0.00120846 -0.00392982 -0.00147701     l-0.00142690 -0.00050352 -0.00451462 0.00298758 -0.00449123 0.00298758 -0.00407018 -0.00302115 -0.00407018 -0.00302115 -0.00208187 -0.00553877 -0.00208187 -0.00553877 -0.00594152 -0.00228265 -0.00596491 -0.00224908     -0.00240936 0.00130916 -0.00243275 0.00130916 -0.00007018 0.04048338 -0.00004678 0.04048338 0.00280702 -0.00000000 0.00283041 -0.00000000 0.00474854 -0.00352467 0.00474854 -0.00352467 0.00750877 -0.00000000 0.00750877 -0.00000000     0.00011696 0.00107419 c0.00007018 0.00060423 0.00025731 0.00208124 0.00039766 0.00328969 0.00018713 0.00164485 0.00072515 0.00352467 0.00215205 0.00745217 l0.00191813 0.00530379 0.00619883 0.00580732 0.00619883 0.00584089     0.00589474 0.00147701 0.00591813 0.00144344 0.00140351 0.00278617 0.00140351 0.00275260 -0.00105263 0.00406177 -0.00102924 0.00402820 -0.00072515 0.01164820 c-0.00060819 0.00993622 -0.00093567 0.01342732     -0.00222222 0.02390064 -0.00084211 0.00674723 -0.00152047 0.01255455 -0.00152047 0.01285666 0.00000000 0.00057066 0.00194152 0.00060423 0.04173099 0.00060423 0.03955556 -0.00000000 0.04175439 -0.00003357     0.04187135 -0.00060423 0.00007018 -0.00030211 0.00074854 -0.00359181 0.00152047 -0.00731789 l0.00142690 -0.00674723 -0.00014035 -0.00533736 -0.00014035 -0.00533736 0.00138012 -0.00503525 0.00138012 -0.00503525 0.00676023 -0.00624371 0.00678363 -0.00624371 0.00163743 -0.00382679 0.00166082 -0.00382679 0.00666667 -0.00805639 0.00666667 -0.00808996 0.00435088 -0.00221551 0.00435088 -0.00224908 0.00526316 -0.00527022 0.00528655 -0.00530379 0.00203509 -0.00604230 c0.00175439 -0.00516952 0.00219883 -0.00684794 0.00301754 -0.01134609 l0.00093567 -0.00530379 0.00350877 -0.00604230 0.00348538 -0.00604230 0.00098246 -0.00000000 c0.00229240 -0.00000000 0.00212865 0.00023498 0.00456140 -0.00678080 l0.00219883 -0.00637798     -0.00058480 -0.00070493 c-0.00032749 -0.00040282 -0.01307602 -0.01654918 -0.02835088 -0.03591809 -0.01527485 -0.01933535 -0.02790643 -0.03514602 -0.02807018 -0.03511245 -0.00016374 -0.00000000 -0.00191813 0.00117489 -0.00390643 0.00255119"/>
     </clipPath>
     <clipPath id="clip-path-steep-passage-2">
      <desc>Steep Passage 2</desc>
      <path d="M0.6255672514619883 0.1226250419603894  l-0.01078363 0.00375965 -0.00266667 0.00255119 -0.00269006 0.00255119 -0.00680702 0.00020141 -0.00680702 0.00023498 -0.00458480 -0.00251762     -0.00456140 -0.00251762 -0.00381287 0.00325613 -0.00378947 0.00325613 -0.00865497 0.00151057 -0.00865497 0.00154414 -0.00224561 0.01117825 c-0.00123977 0.00614300 -0.00231579 0.01127895     -0.00238596 0.01137966 -0.00007018 0.00010070 -0.00481871 0.00174555 -0.01054971 0.00365895 l-0.01043275 0.00349110 -0.00360234 0.00335683 -0.00360234 0.00339040 -0.00060819 0.00241692     c-0.00035088 0.00134273 -0.00091228 0.00362538 -0.00128655 0.00510238 l-0.00067836 0.00268546 -0.00205848 0.00020141 c-0.00114620 0.00013427 -0.00341520 0.00023498 -0.00505263 0.00026855 l-0.00299415 0.00003357     -0.00276023 0.00527022 c-0.00152047 0.00292044 -0.00297076 0.00574018 -0.00320468 0.00631084 -0.00042105 0.00100705 -0.00042105 0.00100705 0.00042105 -0.00016784 0.00046784 -0.00063780 0.00086550 -0.00130916 0.00086550 -0.00144344 0.00000000 -0.00013427 0.00044444 -0.00117489 0.00095906 -0.00231621 l0.00098246 -0.00204767 0.00984795 0.01423296 c0.00542690 0.00782142 0.01861988 0.02692179 0.02928655 0.04243035 l0.01943860 0.02816381     0.00297076 -0.00265190 c0.00233918 -0.00211480 0.00283041 -0.00271903 0.00238596 -0.00278617 -0.00046784 -0.00010070 -0.00056140 -0.00033568 -0.00070175 -0.00184626 -0.00007018 -0.00097348 -0.00014035 -0.00251762 -0.00014035 -0.00349110 0.00000000 -0.00167842 -0.00004678 -0.00177912 -0.00128655 -0.00335683 l-0.00126316 -0.00164485 0.00100585 -0.00184626 c0.00056140 -0.00104062 0.00184795 -0.00352467 0.00283041 -0.00553877 0.00100585 -0.00201410 0.00189474 -0.00375965 0.00196491 -0.00389392 0.00009357 -0.00013427 0.00577778 -0.00221551 0.01265497 -0.00463243 0.01127485 -0.00392749 0.02046784 -0.00725076 0.02121637 -0.00762001 0.00014035 -0.00010070 0.00154386 0.00211480 0.00308772 0.00490097 0.00156725 0.00278617 0.00287719 0.00506882 0.00292398 0.00506882 0.00004678 -0.00000000 0.00259649 0.00036925 0.00566082 0.00083921 0.00348538 0.00053709 0.00697076 0.00083921 0.00928655 0.00083921 l0.00371930 -0.00000000 0.00343860 -0.00335683 0.00341520 -0.00335683 0.00428070 -0.00000000 c0.00271345 -0.00000000 0.00425731 0.00013427 0.00425731 0.00033568 0.00000000 0.00020141 0.00114620 -0.00050352 0.00257310 -0.00151057 l0.00257310 -0.00184626 0.02011696 -0.00000000 c0.01106433 -0.00000000 0.02011696 -0.00013427 0.02011696 -0.00026855     0.00000000 -0.00016784 -0.00014035 -0.00097348 -0.00032749 -0.00184626 -0.00023392 -0.00110775 -0.00107602 -0.00278617 -0.00318129 -0.00634441 l-0.00285380 -0.00480027 0.00271345 -0.00010070 0.00271345 -0.00010070 0.00000000 -0.03987915 0.00000000 -0.03987915     -0.00523977 -0.00275260 -0.00526316 -0.00271903 -0.01480702 -0.00268546 c-0.00814035 -0.00147701 -0.01628070 -0.00295401 -0.01808187 -0.00328969 l-0.00327485 -0.00060423 -0.00720468 -0.00614300 c-0.00395322 -0.00339040 -0.00736842 -0.00617657 -0.00760234 -0.00624371 -0.00021053 -0.00006714 -0.00526316 0.00157771 -0.01120468 0.00362538z"/>
     </clipPath>
     <clipPath id="clip-path-top-of-escarpment">
      <desc>Top of Escarpments</desc>
      <path d="M0.23345029239766082 0.2809667673716012  c0.00000000 0.03964418 0.00004678 0.04397449 0.00037427 0.04397449 0.00018713 -0.00000000 0.00189474 -0.00016784 0.00378947 -0.00036925 l0.00343860 -0.00033568 0.00332164 -0.00271903 0.00332164 -0.00275260 0.00484211 -0.00966767 c0.00266667 -0.00533736 0.00491228 -0.00976838 0.00500585 -0.00983552 0.00032749 -0.00030211 0.00757895 -0.00117489 0.00774269 -0.00090634 0.00007018 0.00013427 0.00081871 0.00261833     0.00163743 0.00550520 l0.00147368 0.00530379 0.00598830 0.00439745 c0.00327485 0.00241692 0.00608187 0.00456529 0.00619883 0.00480027 0.00014035 0.00023498 0.00074854 0.00369251 0.00140351 0.00768714     l0.00114620 0.00725076 0.00294737 0.00174555 c0.00264327 0.00154414 0.00320468 0.00204767 0.00577778 0.00503525 l0.00285380 0.00328969 0.00785965 0.00120846 c0.00432749 0.00063780 0.00818713 0.00117489 0.00858480 0.00117489 0.00037427 -0.00000000 0.00229240 -0.00097348 0.00423392 -0.00218194 l0.00353216 -0.00218194 0.00685380 -0.00000000 0.00685380 -0.00000000 0.00000000 -0.04044982 0.00000000 -0.04041625 -0.00145029 0.00080564     c-0.00081871 0.00043639 -0.00299415 0.00157771 -0.00484211 0.00258476 l-0.00336842 0.00177912 -0.00149708 0.00261833 c-0.00084211 0.00140987 -0.00175439 0.00265190 -0.00201170 0.00275260 -0.00278363 0.00093991 -0.01033918 0.00278617 -0.01043275 0.00258476 -0.00007018 -0.00016784 -0.00126316 -0.00278617 -0.00264327 -0.00580732 l-0.00252632 -0.00550520 -0.00418713 -0.00449815 c-0.00385965 -0.00416247     -0.00439766 -0.00486741 -0.00669006 -0.00882847 l-0.00247953 -0.00433031 0.00177778 -0.00362538 c0.00095906 -0.00201410 0.00175439 -0.00375965 0.00175439 -0.00386036 0.00000000 -0.00010070 -0.01363743 -0.00020141 -0.03029240 -0.00020141     l-0.03029240 -0.00000000 0.00000000 0.04397449z"/>
     </clipPath>
     <clipPath id="clip-path-goblin-den">
      <desc>Goblin Den</desc>
      <path d="M0.15625730994152046 0.16750587445451492  l-0.00643275 0.00016784 -0.00432749 0.00359181 -0.00430409 0.00362538 -0.00229240 -0.00000000 -0.00229240 -0.00000000 -0.00619883 0.00469956     -0.00617544 0.00469956 -0.00327485 -0.00117489 c-0.00180117 -0.00063780 -0.00346199 -0.00117489 -0.00369591 -0.00117489 -0.00025731 -0.00000000 -0.00254971 0.00097348 -0.00512281 0.00218194 l-0.00467836 0.00214837     -0.00407018 0.00026855 -0.00409357 0.00026855 -0.00385965 0.00778785 -0.00385965 0.00782142 -0.00184795 0.00678080 c-0.00116959 0.00433031 -0.00205848 0.00715005 -0.00245614 0.00772071     -0.00032749 0.00050352 -0.00280702 0.00355824 -0.00552047 0.00678080 l-0.00491228 0.00590802 -0.00259649 0.00795569 -0.00257310 0.00798926 -0.00591813 0.00570661 -0.00589474 0.00570661 -0.00378947 0.00570661 -0.00381287 0.00570661 -0.00051462 0.01208459 -0.00051462 0.01208459 0.00056140 0.00923129 0.00053801 0.00923129 0.00224561 0.01064115 c0.00201170 0.00946626     0.00226901 0.01094327 0.00226901 0.01322591 l0.00000000 0.00255119 -0.00233918 0.00355824 -0.00233918 0.00359181 0.00000000 0.00725076 0.00000000 0.00725076 0.00173099 0.00684794 c0.00095906 0.00375965     0.00287719 0.01033904 0.00430409 0.01463578 l0.00257310 0.00778785 0.00297076 0.00496811 c0.00166082 0.00271903 0.00313450 0.00520309 0.00332164 0.00550520 0.00028070 0.00046996 0.00025731 0.00134273 -0.00004678 0.00580732 -0.00032749 0.00480027 -0.00032749 0.00607586 0.00000000 0.01413226 l0.00037427 0.00886203 0.00194152 0.00701578 0.00194152 0.00701578 0.00460819 0.00762001 c0.00252632 0.00416247 0.00479532 0.00772071 0.00500585 0.00785498 0.00021053 0.00016784 0.00327485 0.00127560 0.00676023 0.00245049 l0.00638596 0.00211480 0.00421053 0.00859349 0.00421053 0.00855992 0.00484211 0.00177912 c0.00329825 0.00120846 0.00755556 0.00241692 0.01323977 0.00375965 0.00463158 0.00107419 0.00844444 0.00201410 0.00849123 0.00211480 0.00004678 0.00006714 0.00032749 0.00241692 0.00060819 0.00520309     l0.00049123 0.00503525 0.00269006 0.00389392 0.00269006 0.00389392 0.00821053 0.00386036 0.00821053 0.00386036 0.00381287 -0.00000000 0.00378947 -0.00000000 0.00283041 -0.00355824 0.00285380 -0.00359181     0.00984795 -0.00355824 0.00984795 -0.00355824 0.00173099 -0.00396106 0.00173099 -0.00392749 0.00107602 0.00003357 c0.00058480 -0.00000000 0.00233918 0.00020141 0.00388304 0.00040282 l0.00278363 0.00040282 0.00177778 0.00654582     0.00175439 0.00651225 0.00935673 0.01198389 c0.00528655 0.00678080 0.00956725 0.01201746 0.00982456 0.01205102 0.00025731 -0.00000000 0.00252632 -0.00040282 0.00507602 -0.00090634 l0.00458480 -0.00090634 0.00360234 0.00251762 0.00357895 0.00251762 0.01333333 0.00110775 c0.00734503 0.00057066 0.01408187 0.00114132 0.01497076 0.00124203 l0.00163743 0.00020141 0.00173099 -0.00355824 c0.00170760 -0.00349110 0.00175439 -0.00352467     0.00292398 -0.00389392 0.00065497 -0.00016784 0.00760234 -0.00221551 0.01546199 -0.00453172 l0.01426901 -0.00419604 0.00320468 -0.00476670 c0.00311111 -0.00466600 0.00329825 -0.00500168 0.00594152 -0.01151393 0.00149708 -0.00369251 0.00273684 -0.00674723 0.00276023 -0.00681437 0.00004678 -0.00003357 0.00432749 -0.00177912 0.00954386 -0.00386036 l0.00947368 -0.00379322 0.00259649 -0.00349110 0.00259649 -0.00349110 0.00224561 -0.00808996 c0.00128655 -0.00469956 0.00222222 -0.00859349 0.00222222 -0.00926485 0.00000000 -0.00063780 -0.00037427 -0.00651225 -0.00081871 -0.01305807 l-0.00081871 -0.01188318 -0.00404678 -0.01111111 -0.00402339 -0.01107754 -0.00385965 -0.00292044     c-0.00212865 -0.00161128 -0.00397661 -0.00292044 -0.00411696 -0.00295401 -0.00014035 -0.00000000 -0.00163743 0.00144344 -0.00334503 0.00318899 l-0.00306433 0.00318899 -0.00685380 -0.00127560 -0.00683041 -0.00124203 -0.00189474 -0.00520309 -0.00189474 -0.00520309 -0.01230409 -0.01419940 -0.01232749 -0.01416583 -0.00456140 0.00117489 c-0.00250292 0.00063780 -0.00472515 0.00117489 -0.00495906 0.00117489 -0.00025731 -0.00000000     -0.00161404 -0.00191339 -0.00334503 -0.00469956 -0.00159064 -0.00258476 -0.00292398 -0.00469956 -0.00297076 -0.00469956 -0.00166082 -0.00000000 -0.01616374 -0.00214837 -0.01642105 -0.00245049 -0.00215205 -0.00224908 -0.00355556 -0.00416247 -0.00371930 -0.00506882 -0.00011696 -0.00057066 -0.00051462 -0.00275260 -0.00086550 -0.00480027 l-0.00067836 -0.00379322 -0.00381287 -0.00443102 -0.00381287 -0.00446459 0.00000000 -0.00436388 c0.00000000 -0.00241692 0.00007018 -0.00627727 0.00016374 -0.00859349 l0.00014035 -0.00426318 0.00194152 -0.00023498 0.00196491 -0.00023498 0.00000000 -0.04394092 c0.00000000 -0.03538100 -0.00004678 -0.04394092 -0.00030409 -0.04394092 -0.00016374 -0.00000000 -0.00095906 0.00114132 -0.00177778 0.00251762 -0.00243275 0.00406177 -0.00191813 0.00392749 -0.00512281 0.00137630 l-0.00278363 -0.00221551 -0.00874854 -0.00177912 -0.00874854 -0.00174555 -0.00240936 -0.00889560 c-0.00226901 -0.00832494     -0.00259649 -0.00980195 -0.00491228 -0.02289359 l-0.00250292 -0.01399799 -0.00240936 -0.00399463 c-0.00194152 -0.00322256 -0.00257310 -0.00406177 -0.00315789 -0.00419604 -0.00042105 -0.00006714 -0.00404678 -0.00067137 -0.00809357 -0.00127560 l-0.00736842 -0.00110775 -0.00299415 -0.00580732 -0.00301754 -0.00580732 -0.00320468 0.00006714 c-0.00175439 0.00003357 -0.00610526 0.00016784 -0.00963743 0.00026855z"/>
     </clipPath>
     <clipPath id="clip-path-twin-pools-cave">
      <desc>Twin Pools Cave</desc>
      <path d="M0.7991812865497075 0.13648875461564283  c-0.01015205 0.00020141 -0.01974269 0.00040282 -0.02128655 0.00043639 l-0.00280702 0.00003357 -0.00402339 0.00728432 c-0.00378947 0.00688150 -0.00432749 0.00768714 -0.00895906 0.01362873 l-0.00491228 0.00627727 0.00016374 0.00537093 0.00014035 0.00537093 -0.01108772 -0.00000000 -0.01108772 -0.00003357 -0.00397661 0.00295401     -0.00400000 0.00292044 -0.00360234 -0.00147701 c-0.00198830 -0.00080564 -0.00369591 -0.00161128 -0.00376608 -0.00174555 -0.00007018 -0.00016784 -0.00070175 -0.00245049 -0.00138012 -0.00506882 -0.00067836 -0.00261833 -0.00135673 -0.00496811     -0.00149708 -0.00520309 -0.00011696 -0.00026855 -0.00362573 -0.00446459 -0.00778947 -0.00933199 -0.00645614 -0.00762001 -0.00771930 -0.00923129 -0.00874854 -0.01131252 -0.00063158 -0.00134273 -0.00142690 -0.00261833 -0.00175439 -0.00285331 l-0.00056140 -0.00043639 0.00000000 0.03997986 c0.00000000 0.03195703 0.00007018 0.03994629 0.00030409 0.03994629 0.00016374 -0.00000000 0.00187135 0.00228265 0.00378947 0.00503525 0.00292398 0.00419604     0.00395322 0.00547163 0.00617544 0.00745217 0.00261988 0.00234978 0.00276023 0.00241692 0.00526316 0.00302115 0.00142690 0.00033568 0.00285380 0.00070493 0.00315789 0.00080564 0.00053801 0.00016784 0.00039766 0.00043639 -0.00177778 0.00359181 -0.00152047 0.00218194 -0.00290058 0.00463243 -0.00385965 0.00681437 l-0.00152047 0.00335683 -0.00355556 0.00147701 c-0.00194152 0.00077207 -0.00360234 0.00134273 -0.00369591 0.00124203 -0.00007018 -0.00013427 -0.00070175 -0.00372608 -0.00138012 -0.00802283 -0.00067836 -0.00429674 -0.00138012 -0.00859349 -0.00156725 -0.00949983 l-0.00030409 -0.00167842 -0.02016374 -0.00010070     -0.02016374 -0.00006714 -0.00254971 0.00184626 -0.00254971 0.00181269 0.00091228 0.00345754 c0.00077193 0.00285331 0.00121637 0.00550520 0.00240936 0.01487076 l0.00147368 0.01141323 0.00273684 0.00637798     c0.00313450 0.00725076 0.00304094 0.00617657 0.00084211 0.01007049 -0.00074854 0.00127560 -0.00217544 0.00422961 -0.00320468 0.00654582 l-0.00187135 0.00419604 -0.00063158 0.00973481     c-0.00060819 0.00916415 -0.00070175 0.00996979 -0.00156725 0.01376301 l-0.00091228 0.00402820 0.00116959 0.00550520 c0.00065497 0.00305472 0.00116959 0.00560591 0.00116959 0.00570661 0.00000000 0.00010070     -0.00100585 -0.00137630 -0.00224561 -0.00325613 l-0.00226901 -0.00345754 -0.00388304 -0.00278617 -0.00388304 -0.00278617 -0.00456140 -0.00124203 -0.00456140 -0.00124203 -0.00362573 0.00070493 c-0.00198830 0.00036925     -0.00388304 0.00067137 -0.00421053 0.00067137 -0.00044444 -0.00000000 -0.00285380 -0.00271903 -0.00912281 -0.01023834 l-0.00853801 -0.01023834 -0.00121637 -0.00574018 c-0.00067836 -0.00315542 -0.00135673 -0.00600873     -0.00154386 -0.00631084 -0.00016374 -0.00030211 -0.00138012 -0.00238335 -0.00269006 -0.00459886 l-0.00236257 -0.00409533 -0.00538012 -0.00473313 -0.00540351 -0.00473313 -0.00601170 -0.00151057 c-0.00329825 -0.00083921     -0.00622222 -0.00154414 -0.00647953 -0.00157771 -0.00051462 -0.00006714 -0.00566082 0.00446459 -0.00617544 0.00540450 -0.00016374 0.00030211 -0.00514620 0.00751930 -0.01111111 0.01604565 l-0.01080702 0.01554213 -0.00180117 0.00087278 c-0.00100585 0.00046996 -0.00182456 0.00093991 -0.00182456 0.00107419 0.00000000 0.00010070 0.00138012 0.00533736 0.00306433 0.01161464 l0.00306433 0.01144679 0.00259649 0.00365895 0.00261988 0.00362538 0.00561404 0.00402820 0.00561404 0.00402820 0.00198830 0.00295401 0.00198830 0.00298758 0.00952047 0.00419604 0.00952047 0.00419604 0.01578947 0.01789191     0.01581287 0.01785834 0.00612865 0.00278617 0.00612865 0.00275260 0.00421053 0.00604230 0.00423392 0.00604230 0.00963743 0.00305472 0.00966082 0.00302115 0.00334503 -0.00302115 0.00334503 -0.00302115 0.00226901 -0.00480027 0.00226901 -0.00476670 0.00645614 -0.00349110 0.00645614 -0.00352467 0.00308772 0.00043639 c0.00168421 0.00023498 0.00313450 0.00050352 0.00320468 0.00057066 0.00007018 0.00006714 0.00021053 0.00335683 0.00028070 0.00735146 l0.00016374 0.00721719 0.00647953 0.01231957 0.00650292 0.01231957 0.00339181 0.00194696 c0.00184795 0.00107419 0.00357895 0.00194696 0.00385965 0.00194696 0.00025731 -0.00000000 0.00378947 -0.00083921     0.00783626 -0.00184626 0.00404678 -0.00100705 0.00762573 -0.00184626 0.00792982 -0.00184626 0.00056140 -0.00000000 0.02343860 0.00980195 0.02409357 0.01033904 0.00058480 0.00046996 0.00397661 0.01503860 0.00528655 0.02269218 0.00098246 0.00577375 0.00135673 0.00748573 0.00173099 0.00788855 0.00028070 0.00030211 0.00210526 0.00194696 0.00409357 0.00365895 l0.00360234 0.00312185 0.00610526 0.00251762 0.00612865 0.00248406     0.00163743 -0.00070493 c0.00093567 -0.00040282 0.00173099 -0.00060423 0.00184795 -0.00043639 0.00042105 0.00063780 0.00350877 0.01067472 0.00334503 0.01087613 -0.00011696 0.00013427 -0.00243275 0.00248406 -0.00519298 0.00523666     -0.00273684 0.00275260 -0.00507602 0.00530379 -0.00519298 0.00567304 -0.00018713 0.00060423 -0.00231579 0.01265525 -0.00231579 0.01309164 0.00000000 0.00010070 0.01469006 0.00016784 0.03265497 0.00016784     l0.03263158 -0.00000000 0.00182456 0.00167842 c0.00140351 0.00127560 0.00203509 0.00167842 0.00276023 0.00167842 0.00058480 -0.00000000 0.00236257 -0.00080564 0.00488889 -0.00221551 0.00327485 -0.00184626 0.00491228 -0.00302115 0.00954386 -0.00694864 0.00327485 -0.00278617 0.00566082 -0.00503525 0.00577778 -0.00543807 0.00009357 -0.00036925 0.00088889 -0.00513595 0.00173099 -0.01057402 0.00086550 -0.00543807 0.00161404 -0.01017120 0.00166082 -0.01047331 0.00007018 -0.00030211 0.00091228 -0.00127560 0.00187135 -0.00211480 l0.00175439 -0.00151057 0.00215205 0.00177912 0.00215205 0.00181269 0.00907602 0.00073850 0.00909942 0.00070493 0.00280702 0.00167842 c0.00334503 0.00198053 0.00276023 0.00194696 0.01235088 0.00100705 l0.00690058 -0.00067137 0.00269006 -0.00234978 c0.00147368 -0.00130916 0.00495906 -0.00436388 0.00771930 -0.00681437 l0.00502924 -0.00443102 0.00294737 -0.00597516 0.00294737 -0.00597516 0.00014035 -0.00708291 c0.00009357 -0.00389392 0.00016374 -0.01013763 0.00016374 -0.01389728 l0.00000000 -0.00678080 -0.00152047 -0.00557234 -0.00152047 -0.00560591 0.00152047 -0.00674723 c0.00084211 -0.00372608 0.00152047 -0.00715005 0.00152047 -0.00762001 0.00000000 -0.00046996     -0.00072515 -0.00788855 -0.00163743 -0.01654918 -0.00088889 -0.00866062 -0.00163743 -0.01607922 -0.00163743 -0.01648204 0.00000000 -0.00043639 0.00081871 -0.00208124 0.00208187 -0.00409533 l0.00205848 -0.00335683 0.00659649 -0.00224908     c0.00364912 -0.00124203 0.00664327 -0.00228265 0.00669006 -0.00234978 0.00002339 -0.00006714 0.00095906 -0.00248406 0.00208187 -0.00540450 l0.00201170 -0.00527022 0.00000000 -0.01050688 c0.00000000 -0.00580732 -0.00007018 -0.01530715 -0.00016374 -0.02114804     l-0.00014035 -0.01057402 -0.00591813 -0.00698221 c-0.00325146 -0.00382679 -0.00603509 -0.00735146 -0.00617544 -0.00782142 -0.00016374 -0.00046996 -0.00154386 -0.00503525 -0.00308772 -0.01010406 -0.00154386 -0.00506882     -0.00292398 -0.00939913 -0.00308772 -0.00960054 -0.00014035 -0.00020141 -0.00411696 -0.00258476 -0.00886550 -0.00530379 l-0.00858480 -0.00490097 -0.00472515 0.00151057 c-0.00259649 0.00083921 -0.00479532 0.00140987 -0.00488889 0.00127560 -0.00007018 -0.00016784 -0.00205848 -0.00379322 -0.00439766 -0.00805639 l-0.00423392 -0.00782142 0.00016374 -0.00785498 0.00014035 -0.00785498 -0.00238596 -0.00617657 c-0.00133333 -0.00335683     -0.00243275 -0.00617657 -0.00245614 -0.00621014 -0.00004678 -0.00010070 -0.00559064 -0.00087278 -0.01674854 -0.00245049 l-0.00502924 -0.00070493 -0.00491228 -0.00325613 -0.00491228 -0.00328969 -0.00175439 -0.01104397 -0.00175439 -0.01107754 -0.00647953 -0.00778785 -0.00645614 -0.00782142 -0.00699415 -0.00271903 c-0.00383626 -0.00151057 -0.00699415 -0.00278617 -0.00701754 -0.00281974 -0.00002339 -0.00000000 -0.00021053 -0.00493454 -0.00042105 -0.01094327     -0.00021053 -0.00644512 -0.00056140 -0.01309164 -0.00086550 -0.01634777 l-0.00051462 -0.00543807 -0.00439766 -0.00553877 -0.00437427 -0.00553877 -0.00416374 0.00006714 c-0.00229240 -0.00000000 -0.01246784 0.00023498     -0.02264327 0.00046996z"/>
     </clipPath>
   </g>
</svg>
